<svg width="24" height="24" viewBox="0 0 24 24" fill="none" xmlns="http://www.w3.org/2000/svg">
<g clip-path="url(#clip0_2194_48050)">
<path d="M11.97 0.22641C5.47154 0.22641 0 5.39547 0 11.7736V23.7306L11.9677 23.7192C18.4662 23.7192 23.7369 18.3509 23.7369 11.9751C23.7369 5.59924 18.4615 0.22641 11.97 0.22641Z" fill="#231F20"/>
<path d="M12.0856 4.69586C10.8221 4.69659 9.5805 5.01919 8.48224 5.63209C7.38399 6.24498 6.46676 7.12716 5.82033 8.19227C5.17391 9.25738 4.82044 10.4689 4.79453 11.7083C4.76863 12.9477 5.07117 14.1724 5.67254 15.2627L4.35254 19.4287L9.09254 18.3781C10.0844 18.8166 11.1636 19.0318 12.2513 19.0081C13.3389 18.9843 14.4073 18.7222 15.3783 18.2409C16.3493 17.7596 17.1983 17.0713 17.8631 16.2265C18.5279 15.3816 18.9917 14.4015 19.2204 13.3581C19.4492 12.3146 19.4373 11.2341 19.1854 10.1957C18.9335 9.1574 18.4481 8.18747 17.7647 7.357C17.0813 6.52652 16.2173 5.85653 15.2358 5.39608C14.2544 4.93563 13.1804 4.69638 12.0925 4.69586H12.0856Z" fill="#FFF9AE"/>
<path d="M17.8733 7.49887C18.8566 8.76372 19.3822 10.314 19.367 11.9047C19.3519 13.4954 18.7968 15.0358 17.7896 16.2824C16.7824 17.529 15.3805 18.4107 13.8055 18.7882C12.2304 19.1657 10.5721 19.0174 9.09254 18.3668L4.35254 19.4309L9.17792 18.8717C10.7231 19.7598 12.5473 20.059 14.3029 19.7122C16.0585 19.3655 17.6227 18.3971 18.6973 16.9916C19.7719 15.5861 20.2818 13.8418 20.1299 12.0911C19.9779 10.3404 19.1747 8.70585 17.8733 7.49887Z" fill="#00AEEF"/>
<path d="M16.5302 6.17886C17.6427 7.33608 18.3303 8.82403 18.4845 10.4075C18.6387 11.9911 18.2506 13.5798 17.3816 14.9228C16.5126 16.2657 15.2122 17.2862 13.686 17.823C12.1598 18.3597 10.4948 18.3822 8.95408 17.8868L4.35254 19.4309L9.09254 18.3781C10.7233 19.1008 12.5679 19.2101 14.2754 18.685C15.9829 18.1599 17.434 17.0373 18.3526 15.5306C19.2712 14.024 19.5931 12.2385 19.2571 10.5141C18.921 8.78975 17.9505 7.24677 16.5302 6.17886Z" fill="#00A94F"/>
<path d="M6.10869 15.4211C5.46769 13.9052 5.37721 12.2191 5.85242 10.6455C6.32763 9.07185 7.33965 7.70628 8.7189 6.7776C10.0981 5.84891 11.7608 5.41354 13.4283 5.54444C15.0958 5.67534 16.6667 6.36456 17.8779 7.49659C16.7633 6.06145 15.1373 5.09233 13.3255 4.78322C11.5137 4.47412 9.6497 4.84786 8.10675 5.82961C6.56379 6.81136 5.45572 8.32868 5.00435 10.0778C4.55299 11.8269 4.79164 13.6788 5.67254 15.2626L4.35254 19.4287L6.10869 15.4211Z" fill="#F15D22"/>
<path d="M5.67261 15.2626C4.87718 13.8211 4.61021 12.1554 4.91633 10.5439C5.22244 8.93248 6.08309 7.47295 7.35438 6.40936C8.62568 5.34577 10.2306 4.74257 11.9008 4.70062C13.5709 4.65867 15.2052 5.1805 16.5303 6.17887C15.2671 4.87389 13.5492 4.08373 11.7188 3.96583C9.88844 3.84792 8.07997 4.41093 6.65373 5.54267C5.22749 6.67441 4.28819 8.29181 4.02297 10.0726C3.75774 11.8534 4.18607 13.6669 5.22261 15.1517L4.35492 19.4309L5.67261 15.2626Z" fill="#E31B23"/>
</g>
<defs>
<clipPath id="clip0_2194_48050">
<rect width="24" height="24" fill="white"/>
</clipPath>
</defs>
</svg>
