<svg width="784" height="248" viewBox="0 0 784 248" fill="none" xmlns="http://www.w3.org/2000/svg">
<path d="M15.888 44.48C13.232 44.48 10.976 44.016 9.12 43.088C7.264 42.128 5.84 40.672 4.848 38.72C3.856 36.736 3.312 34.24 3.216 31.232C3.184 29.792 3.168 28.448 3.168 27.2C3.168 25.952 3.184 24.608 3.216 23.168C3.312 20.192 3.888 17.728 4.944 15.776C6 13.792 7.456 12.32 9.312 11.36C11.2 10.4 13.392 9.92 15.888 9.92C18.384 9.92 20.56 10.4 22.416 11.36C24.304 12.32 25.776 13.792 26.832 15.776C27.92 17.728 28.496 20.192 28.56 23.168C28.624 24.608 28.656 25.952 28.656 27.2C28.656 28.448 28.624 29.792 28.56 31.232C28.496 34.24 27.952 36.736 26.928 38.72C25.936 40.672 24.512 42.128 22.656 43.088C20.8 44.016 18.544 44.48 15.888 44.48ZM15.888 41.6C18.64 41.6 20.896 40.768 22.656 39.104C24.448 37.44 25.408 34.736 25.536 30.992C25.6 29.552 25.632 28.288 25.632 27.2C25.632 26.112 25.6 24.848 25.536 23.408C25.472 20.912 25.008 18.88 24.144 17.312C23.312 15.744 22.176 14.608 20.736 13.904C19.328 13.168 17.712 12.8 15.888 12.8C14.096 12.8 12.48 13.168 11.04 13.904C9.632 14.608 8.496 15.744 7.632 17.312C6.8 18.88 6.336 20.912 6.24 23.408C6.208 24.848 6.192 26.112 6.192 27.2C6.192 28.288 6.208 29.552 6.24 30.992C6.368 34.736 7.328 37.44 9.12 39.104C10.912 40.768 13.168 41.6 15.888 41.6ZM39.0773 44C38.7573 44 38.5013 43.904 38.3093 43.712C38.1173 43.52 38.0213 43.264 38.0213 42.944V21.824H33.7493C33.4293 21.824 33.1733 21.728 32.9813 21.536C32.7893 21.344 32.6933 21.088 32.6933 20.768V20.096C32.6933 19.776 32.7893 19.52 32.9813 19.328C33.1733 19.136 33.4293 19.04 33.7493 19.04H38.0213V16.304C38.0213 14.864 38.2133 13.552 38.5973 12.368C39.0133 11.184 39.7333 10.24 40.7573 9.536C41.8133 8.832 43.3173 8.48 45.2693 8.48H47.7653C48.0853 8.48 48.3413 8.576 48.5333 8.768C48.7253 8.96 48.8213 9.216 48.8213 9.536V10.208C48.8213 10.528 48.7253 10.784 48.5333 10.976C48.3413 11.168 48.0853 11.264 47.7653 11.264H45.2693C43.5733 11.264 42.4213 11.728 41.8133 12.656C41.2373 13.552 40.9493 14.848 40.9493 16.544V19.04H51.5573V16.304C51.5573 14.864 51.7493 13.552 52.1333 12.368C52.5493 11.184 53.2693 10.24 54.2933 9.536C55.3493 8.832 56.8533 8.48 58.8053 8.48H64.1333C64.4533 8.48 64.7093 8.576 64.9013 8.768C65.0933 8.96 65.1893 9.216 65.1893 9.536V10.208C65.1893 10.528 65.0933 10.784 64.9013 10.976C64.7093 11.168 64.4533 11.264 64.1333 11.264H58.8053C57.1093 11.264 55.9573 11.728 55.3493 12.656C54.7733 13.552 54.4853 14.848 54.4853 16.544V19.04H64.1333C64.4533 19.04 64.7093 19.136 64.9013 19.328C65.0933 19.52 65.1893 19.776 65.1893 20.096V42.944C65.1893 43.264 65.0933 43.52 64.9013 43.712C64.7093 43.904 64.4533 44 64.1333 44H63.3173C62.9973 44 62.7413 43.904 62.5493 43.712C62.3573 43.52 62.2613 43.264 62.2613 42.944V21.824H54.4853V42.944C54.4853 43.264 54.3893 43.52 54.1973 43.712C54.0053 43.904 53.7493 44 53.4293 44H52.6133C52.2933 44 52.0373 43.904 51.8453 43.712C51.6533 43.52 51.5573 43.264 51.5573 42.944V21.824H40.9493V42.944C40.9493 43.264 40.8533 43.52 40.6613 43.712C40.4693 43.904 40.2133 44 39.8933 44H39.0773ZM82.4378 44.48C80.1978 44.48 78.2938 44.048 76.7258 43.184C75.1578 42.288 73.9578 41.008 73.1258 39.344C72.3258 37.68 71.8938 35.712 71.8298 33.44C71.7978 32.96 71.7818 32.32 71.7818 31.52C71.7818 30.72 71.7978 30.08 71.8298 29.6C71.8938 27.296 72.3258 25.328 73.1258 23.696C73.9578 22.032 75.1578 20.768 76.7258 19.904C78.2938 19.008 80.1978 18.56 82.4378 18.56C84.1338 18.56 85.5898 18.8 86.8058 19.28C88.0538 19.728 89.0778 20.336 89.8778 21.104C90.6778 21.84 91.2858 22.656 91.7018 23.552C92.1178 24.448 92.3418 25.328 92.3738 26.192C92.4058 26.512 92.3098 26.768 92.0858 26.96C91.8618 27.152 91.6058 27.248 91.3178 27.248H90.6458C90.3258 27.248 90.0858 27.184 89.9258 27.056C89.7978 26.896 89.6538 26.624 89.4938 26.24C88.8218 24.416 87.8938 23.152 86.7098 22.448C85.5578 21.712 84.1338 21.344 82.4378 21.344C80.2618 21.344 78.4538 22.016 77.0138 23.36C75.6058 24.672 74.8538 26.832 74.7578 29.84C74.6938 30.96 74.6938 32.08 74.7578 33.2C74.8538 36.208 75.6058 38.384 77.0138 39.728C78.4538 41.04 80.2618 41.696 82.4378 41.696C84.1338 41.696 85.5578 41.344 86.7098 40.64C87.8938 39.904 88.8218 38.624 89.4938 36.8C89.6538 36.416 89.7978 36.16 89.9258 36.032C90.0858 35.872 90.3258 35.792 90.6458 35.792H91.3178C91.6058 35.792 91.8618 35.888 92.0858 36.08C92.3098 36.272 92.4058 36.528 92.3738 36.848C92.3418 37.552 92.1978 38.256 91.9418 38.96C91.6858 39.664 91.2858 40.352 90.7418 41.024C90.2298 41.696 89.5898 42.288 88.8218 42.8C88.0538 43.312 87.1258 43.712 86.0378 44C84.9818 44.32 83.7818 44.48 82.4378 44.48ZM99.7721 44C99.4521 44 99.1961 43.904 99.0041 43.712C98.8121 43.52 98.7161 43.264 98.7161 42.944V20.096C98.7161 19.776 98.8121 19.52 99.0041 19.328C99.1961 19.136 99.4521 19.04 99.7721 19.04H100.588C100.908 19.04 101.164 19.136 101.356 19.328C101.548 19.52 101.644 19.776 101.644 20.096V42.944C101.644 43.264 101.548 43.52 101.356 43.712C101.164 43.904 100.908 44 100.588 44H99.7721ZM99.2441 13.904C98.9241 13.904 98.6681 13.808 98.4761 13.616C98.2841 13.424 98.1881 13.168 98.1881 12.848V11.024C98.1881 10.704 98.2841 10.448 98.4761 10.256C98.6681 10.032 98.9241 9.92 99.2441 9.92H101.068C101.388 9.92 101.644 10.032 101.836 10.256C102.06 10.448 102.172 10.704 102.172 11.024V12.848C102.172 13.168 102.06 13.424 101.836 13.616C101.644 13.808 101.388 13.904 101.068 13.904H99.2441ZM116.124 44.48C114.588 44.48 113.164 44.16 111.852 43.52C110.572 42.88 109.532 42.032 108.732 40.976C107.932 39.888 107.532 38.672 107.532 37.328C107.532 35.152 108.412 33.408 110.172 32.096C111.932 30.784 114.22 29.936 117.036 29.552L124.62 28.496V26.816C124.62 25.12 124.092 23.792 123.036 22.832C122.012 21.84 120.364 21.344 118.092 21.344C116.428 21.344 115.084 21.68 114.06 22.352C113.036 22.992 112.332 23.84 111.948 24.896C111.788 25.376 111.484 25.616 111.036 25.616H110.268C109.884 25.616 109.612 25.52 109.452 25.328C109.292 25.104 109.212 24.848 109.212 24.56C109.212 24.112 109.372 23.552 109.692 22.88C110.044 22.208 110.572 21.552 111.276 20.912C111.98 20.24 112.892 19.68 114.012 19.232C115.132 18.784 116.492 18.56 118.092 18.56C119.98 18.56 121.532 18.816 122.748 19.328C123.996 19.84 124.956 20.512 125.628 21.344C126.332 22.144 126.828 23.04 127.116 24.032C127.404 25.024 127.548 26 127.548 26.96V42.944C127.548 43.264 127.452 43.52 127.26 43.712C127.068 43.904 126.812 44 126.492 44H125.676C125.356 44 125.1 43.904 124.908 43.712C124.716 43.52 124.62 43.264 124.62 42.944V40.688C124.236 41.264 123.692 41.84 122.988 42.416C122.284 42.992 121.372 43.488 120.252 43.904C119.164 44.288 117.788 44.48 116.124 44.48ZM116.604 41.696C118.076 41.696 119.42 41.376 120.636 40.736C121.852 40.096 122.812 39.12 123.516 37.808C124.252 36.464 124.62 34.784 124.62 32.768V31.136L118.428 32C115.804 32.352 113.82 32.96 112.476 33.824C111.132 34.688 110.46 35.776 110.46 37.088C110.46 38.144 110.764 39.008 111.372 39.68C111.98 40.352 112.748 40.864 113.676 41.216C114.636 41.536 115.612 41.696 116.604 41.696ZM136.242 44C135.922 44 135.666 43.904 135.474 43.712C135.282 43.52 135.186 43.264 135.186 42.944V10.976C135.186 10.656 135.282 10.4 135.474 10.208C135.666 10.016 135.922 9.92 136.242 9.92H137.058C137.378 9.92 137.634 10.016 137.826 10.208C138.018 10.4 138.114 10.656 138.114 10.976V42.944C138.114 43.264 138.018 43.52 137.826 43.712C137.634 43.904 137.378 44 137.058 44H136.242Z" fill="white"/>
<path d="M13.536 100C13.024 100 12.624 99.872 12.336 99.616C12.048 99.36 11.84 99.04 11.712 98.656L1.44 67.84C1.376 67.68 1.344 67.536 1.344 67.408C1.344 67.12 1.44 66.88 1.632 66.688C1.824 66.496 2.064 66.4 2.352 66.4H6.576C7.024 66.4 7.36 66.528 7.584 66.784C7.84 67.008 8 67.232 8.064 67.456L16.176 92.176L24.288 67.456C24.352 67.232 24.496 67.008 24.72 66.784C24.976 66.528 25.328 66.4 25.776 66.4H30C30.256 66.4 30.48 66.496 30.672 66.688C30.896 66.88 31.008 67.12 31.008 67.408C31.008 67.536 30.976 67.68 30.912 67.84L20.64 98.656C20.512 99.04 20.304 99.36 20.016 99.616C19.728 99.872 19.328 100 18.816 100H13.536ZM43.7325 100.48C40.1805 100.48 37.3645 99.456 35.2845 97.408C33.2045 95.36 32.0845 92.448 31.9245 88.672C31.8925 88.352 31.8765 87.952 31.8765 87.472C31.8765 86.96 31.8925 86.56 31.9245 86.272C32.0525 83.84 32.5965 81.76 33.5565 80.032C34.5485 78.272 35.9085 76.928 37.6365 76C39.3645 75.04 41.3965 74.56 43.7325 74.56C46.3245 74.56 48.5005 75.104 50.2605 76.192C52.0205 77.248 53.3485 78.736 54.2445 80.656C55.1405 82.544 55.5885 84.736 55.5885 87.232V88.24C55.5885 88.56 55.4765 88.832 55.2525 89.056C55.0285 89.28 54.7405 89.392 54.3885 89.392H38.4525C38.4525 89.392 38.4525 89.44 38.4525 89.536C38.4525 89.632 38.4525 89.712 38.4525 89.776C38.4845 90.896 38.6925 91.936 39.0765 92.896C39.4925 93.824 40.0845 94.576 40.8525 95.152C41.6525 95.728 42.5965 96.016 43.6845 96.016C44.5805 96.016 45.3325 95.888 45.9405 95.632C46.5485 95.344 47.0445 95.024 47.4285 94.672C47.8125 94.32 48.0845 94.032 48.2445 93.808C48.5325 93.424 48.7565 93.2 48.9165 93.136C49.1085 93.04 49.3805 92.992 49.7325 92.992H53.8605C54.1805 92.992 54.4365 93.088 54.6285 93.28C54.8525 93.472 54.9485 93.712 54.9165 94C54.8845 94.512 54.6125 95.136 54.1005 95.872C53.6205 96.608 52.9165 97.328 51.9885 98.032C51.0605 98.736 49.8925 99.328 48.4845 99.808C47.1085 100.256 45.5245 100.48 43.7325 100.48ZM38.4525 85.36H49.0605V85.216C49.0605 83.968 48.8525 82.88 48.4365 81.952C48.0205 80.992 47.4125 80.256 46.6125 79.744C45.8125 79.2 44.8525 78.928 43.7325 78.928C42.6125 78.928 41.6525 79.2 40.8525 79.744C40.0525 80.256 39.4445 80.992 39.0285 81.952C38.6445 82.88 38.4525 83.968 38.4525 85.216V85.36ZM74.2196 100.48C71.2436 100.48 68.7156 99.968 66.6356 98.944C64.5876 97.888 63.0196 96.4 61.9316 94.48C60.8436 92.528 60.2356 90.192 60.1076 87.472C60.0756 86.16 60.0596 84.752 60.0596 83.248C60.0596 81.744 60.0756 80.304 60.1076 78.928C60.2356 76.24 60.8436 73.92 61.9316 71.968C63.0516 70.016 64.6356 68.528 66.6836 67.504C68.7636 66.448 71.2756 65.92 74.2196 65.92C76.3956 65.92 78.3476 66.208 80.0756 66.784C81.8036 67.36 83.2756 68.16 84.4916 69.184C85.7076 70.176 86.6516 71.344 87.3236 72.688C87.9956 74.032 88.3476 75.488 88.3796 77.056C88.4116 77.344 88.3156 77.584 88.0916 77.776C87.8996 77.968 87.6596 78.064 87.3716 78.064H82.8116C82.4596 78.064 82.1716 77.984 81.9476 77.824C81.7236 77.632 81.5636 77.328 81.4676 76.912C80.9556 74.8 80.0756 73.36 78.8276 72.592C77.5796 71.824 76.0276 71.44 74.1716 71.44C72.0276 71.44 70.3156 72.048 69.0356 73.264C67.7556 74.448 67.0676 76.416 66.9716 79.168C66.8756 81.792 66.8756 84.48 66.9716 87.232C67.0676 89.984 67.7556 91.968 69.0356 93.184C70.3156 94.368 72.0276 94.96 74.1716 94.96C76.0276 94.96 77.5796 94.576 78.8276 93.808C80.1076 93.008 80.9876 91.568 81.4676 89.488C81.5636 89.04 81.7236 88.736 81.9476 88.576C82.1716 88.416 82.4596 88.336 82.8116 88.336H87.3716C87.6596 88.336 87.8996 88.432 88.0916 88.624C88.3156 88.816 88.4116 89.056 88.3796 89.344C88.3476 90.912 87.9956 92.368 87.3236 93.712C86.6516 95.056 85.7076 96.24 84.4916 97.264C83.2756 98.256 81.8036 99.04 80.0756 99.616C78.3476 100.192 76.3956 100.48 74.2196 100.48ZM94.6961 100C94.3761 100 94.1041 99.888 93.8801 99.664C93.6561 99.44 93.5441 99.168 93.5441 98.848V67.072C93.5441 66.752 93.6561 66.48 93.8801 66.256C94.1041 66.032 94.3761 65.92 94.6961 65.92H98.9681C99.3201 65.92 99.5921 66.032 99.7841 66.256C100.008 66.48 100.12 66.752 100.12 67.072V78.016C100.984 76.992 102.04 76.16 103.288 75.52C104.536 74.88 106.072 74.56 107.896 74.56C109.848 74.56 111.544 75.008 112.984 75.904C114.456 76.768 115.592 78 116.392 79.6C117.192 81.2 117.592 83.12 117.592 85.36V98.848C117.592 99.168 117.48 99.44 117.256 99.664C117.032 99.888 116.76 100 116.44 100H112.12C111.8 100 111.528 99.888 111.304 99.664C111.08 99.44 110.968 99.168 110.968 98.848V85.648C110.968 83.792 110.504 82.336 109.576 81.28C108.68 80.224 107.368 79.696 105.64 79.696C103.976 79.696 102.632 80.224 101.608 81.28C100.616 82.336 100.12 83.792 100.12 85.648V98.848C100.12 99.168 100.008 99.44 99.7841 99.664C99.5921 99.888 99.3201 100 98.9681 100H94.6961ZM130.932 100.48C129.268 100.48 127.764 100.16 126.42 99.52C125.076 98.848 124.004 97.968 123.204 96.88C122.436 95.76 122.052 94.512 122.052 93.136C122.052 90.896 122.964 89.12 124.788 87.808C126.612 86.464 128.996 85.568 131.94 85.12L138.516 84.16V83.152C138.516 81.808 138.18 80.768 137.508 80.032C136.836 79.296 135.684 78.928 134.052 78.928C132.9 78.928 131.956 79.168 131.22 79.648C130.516 80.096 129.988 80.704 129.636 81.472C129.38 81.888 129.012 82.096 128.532 82.096H124.74C124.388 82.096 124.116 82 123.924 81.808C123.764 81.616 123.684 81.36 123.684 81.04C123.716 80.528 123.924 79.904 124.308 79.168C124.724 78.432 125.332 77.728 126.132 77.056C126.964 76.352 128.036 75.76 129.348 75.28C130.66 74.8 132.244 74.56 134.1 74.56C136.116 74.56 137.812 74.816 139.188 75.328C140.596 75.808 141.716 76.464 142.548 77.296C143.38 78.128 143.988 79.104 144.372 80.224C144.756 81.344 144.948 82.528 144.948 83.776V98.848C144.948 99.168 144.836 99.44 144.612 99.664C144.388 99.888 144.116 100 143.796 100H139.908C139.556 100 139.268 99.888 139.044 99.664C138.852 99.44 138.756 99.168 138.756 98.848V96.976C138.34 97.552 137.78 98.112 137.076 98.656C136.372 99.2 135.508 99.648 134.484 100C133.492 100.32 132.308 100.48 130.932 100.48ZM132.564 95.92C133.684 95.92 134.692 95.68 135.588 95.2C136.516 94.72 137.236 93.984 137.748 92.992C138.292 91.968 138.564 90.688 138.564 89.152V88.144L133.764 88.912C131.876 89.2 130.468 89.664 129.54 90.304C128.612 90.944 128.148 91.728 128.148 92.656C128.148 93.36 128.356 93.968 128.772 94.48C129.22 94.96 129.78 95.328 130.452 95.584C131.124 95.808 131.828 95.92 132.564 95.92ZM152.258 100C151.938 100 151.666 99.888 151.442 99.664C151.218 99.44 151.105 99.168 151.105 98.848V76.192C151.105 75.872 151.218 75.6 151.442 75.376C151.666 75.152 151.938 75.04 152.258 75.04H156.242C156.594 75.04 156.866 75.152 157.058 75.376C157.282 75.6 157.394 75.872 157.394 76.192V98.848C157.394 99.168 157.282 99.44 157.058 99.664C156.866 99.888 156.594 100 156.242 100H152.258ZM152.066 70.912C151.746 70.912 151.474 70.8 151.25 70.576C151.026 70.352 150.914 70.08 150.914 69.76V66.304C150.914 65.984 151.026 65.712 151.25 65.488C151.474 65.264 151.746 65.152 152.066 65.152H156.434C156.786 65.152 157.074 65.264 157.298 65.488C157.522 65.712 157.634 65.984 157.634 66.304V69.76C157.634 70.08 157.522 70.352 157.298 70.576C157.074 70.8 156.786 70.912 156.434 70.912H152.066ZM164.914 100C164.594 100 164.322 99.888 164.098 99.664C163.874 99.44 163.762 99.168 163.762 98.848V76.192C163.762 75.872 163.874 75.6 164.098 75.376C164.322 75.152 164.594 75.04 164.914 75.04H168.85C169.17 75.04 169.442 75.152 169.666 75.376C169.89 75.6 170.002 75.872 170.002 76.192V78.16C170.834 77.136 171.89 76.288 173.17 75.616C174.482 74.912 176.098 74.56 178.018 74.56C179.97 74.56 181.666 75.008 183.106 75.904C184.546 76.768 185.65 78 186.418 79.6C187.218 81.2 187.618 83.12 187.618 85.36V98.848C187.618 99.168 187.506 99.44 187.282 99.664C187.058 99.888 186.786 100 186.466 100H182.242C181.922 100 181.65 99.888 181.426 99.664C181.202 99.44 181.09 99.168 181.09 98.848V85.648C181.09 83.792 180.626 82.336 179.698 81.28C178.802 80.224 177.49 79.696 175.762 79.696C174.098 79.696 172.77 80.224 171.778 81.28C170.786 82.336 170.29 83.792 170.29 85.648V98.848C170.29 99.168 170.178 99.44 169.954 99.664C169.73 99.888 169.458 100 169.138 100H164.914ZM198.429 100C198.109 100 197.837 99.888 197.613 99.664C197.389 99.44 197.277 99.168 197.277 98.848V72.304H188.397C188.077 72.304 187.805 72.192 187.581 71.968C187.357 71.744 187.245 71.472 187.245 71.152V67.6C187.245 67.248 187.357 66.96 187.581 66.736C187.805 66.512 188.077 66.4 188.397 66.4H212.877C213.229 66.4 213.517 66.512 213.741 66.736C213.965 66.96 214.077 67.248 214.077 67.6V71.152C214.077 71.472 213.965 71.744 213.741 71.968C213.517 72.192 213.229 72.304 212.877 72.304H204.045V98.848C204.045 99.168 203.933 99.44 203.709 99.664C203.485 99.888 203.197 100 202.845 100H198.429ZM218.727 100C218.407 100 218.135 99.888 217.911 99.664C217.687 99.44 217.575 99.168 217.575 98.848V67.072C217.575 66.752 217.687 66.48 217.911 66.256C218.135 66.032 218.407 65.92 218.727 65.92H222.999C223.351 65.92 223.623 66.032 223.815 66.256C224.039 66.48 224.151 66.752 224.151 67.072V78.016C225.015 76.992 226.071 76.16 227.319 75.52C228.567 74.88 230.103 74.56 231.927 74.56C233.879 74.56 235.575 75.008 237.015 75.904C238.487 76.768 239.623 78 240.423 79.6C241.223 81.2 241.623 83.12 241.623 85.36V98.848C241.623 99.168 241.511 99.44 241.287 99.664C241.063 99.888 240.791 100 240.471 100H236.151C235.831 100 235.559 99.888 235.335 99.664C235.111 99.44 234.999 99.168 234.999 98.848V85.648C234.999 83.792 234.535 82.336 233.607 81.28C232.711 80.224 231.399 79.696 229.671 79.696C228.007 79.696 226.663 80.224 225.639 81.28C224.647 82.336 224.151 83.792 224.151 85.648V98.848C224.151 99.168 224.039 99.44 223.815 99.664C223.623 99.888 223.351 100 222.999 100H218.727ZM258.755 100.48C256.195 100.48 254.035 100.032 252.275 99.136C250.547 98.24 249.219 96.976 248.291 95.344C247.395 93.712 246.883 91.808 246.755 89.632C246.723 89.056 246.707 88.352 246.707 87.52C246.707 86.688 246.723 85.984 246.755 85.408C246.883 83.2 247.411 81.296 248.339 79.696C249.299 78.064 250.643 76.8 252.371 75.904C254.131 75.008 256.259 74.56 258.755 74.56C261.251 74.56 263.363 75.008 265.091 75.904C266.851 76.8 268.195 78.064 269.123 79.696C270.083 81.296 270.627 83.2 270.755 85.408C270.787 85.984 270.803 86.688 270.803 87.52C270.803 88.352 270.787 89.056 270.755 89.632C270.627 91.808 270.099 93.712 269.171 95.344C268.275 96.976 266.947 98.24 265.187 99.136C263.459 100.032 261.315 100.48 258.755 100.48ZM258.755 95.728C260.451 95.728 261.763 95.2 262.691 94.144C263.619 93.056 264.131 91.472 264.227 89.392C264.259 88.912 264.275 88.288 264.275 87.52C264.275 86.752 264.259 86.128 264.227 85.648C264.131 83.568 263.619 82 262.691 80.944C261.763 79.856 260.451 79.312 258.755 79.312C257.059 79.312 255.747 79.856 254.819 80.944C253.891 82 253.379 83.568 253.283 85.648C253.251 86.128 253.235 86.752 253.235 87.52C253.235 88.288 253.251 88.912 253.283 89.392C253.379 91.472 253.891 93.056 254.819 94.144C255.747 95.2 257.059 95.728 258.755 95.728ZM277.273 100C276.953 100 276.681 99.888 276.457 99.664C276.233 99.44 276.121 99.168 276.121 98.848V76.24C276.121 75.888 276.233 75.6 276.457 75.376C276.681 75.152 276.953 75.04 277.273 75.04H281.161C281.481 75.04 281.753 75.152 281.977 75.376C282.233 75.6 282.361 75.888 282.361 76.24V78.208C283.097 77.184 284.041 76.4 285.193 75.856C286.377 75.312 287.737 75.04 289.273 75.04H291.241C291.593 75.04 291.865 75.152 292.057 75.376C292.281 75.6 292.393 75.872 292.393 76.192V79.648C292.393 79.968 292.281 80.24 292.057 80.464C291.865 80.688 291.593 80.8 291.241 80.8H287.497C285.961 80.8 284.761 81.232 283.897 82.096C283.065 82.928 282.649 84.112 282.649 85.648V98.848C282.649 99.168 282.537 99.44 282.313 99.664C282.089 99.888 281.801 100 281.449 100H277.273ZM307.802 100C307.482 100 307.21 99.888 306.986 99.664C306.762 99.44 306.65 99.168 306.65 98.848V67.6C306.65 67.248 306.762 66.96 306.986 66.736C307.21 66.512 307.482 66.4 307.802 66.4H321.722C324.314 66.4 326.426 66.8 328.058 67.6C329.69 68.368 330.89 69.44 331.658 70.816C332.458 72.192 332.858 73.792 332.858 75.616C332.858 76.832 332.634 77.904 332.186 78.832C331.77 79.728 331.242 80.464 330.602 81.04C329.994 81.616 329.386 82.064 328.778 82.384C330.026 82.96 331.13 83.92 332.09 85.264C333.05 86.608 333.53 88.208 333.53 90.064C333.53 91.984 333.098 93.696 332.234 95.2C331.37 96.704 330.09 97.888 328.394 98.752C326.698 99.584 324.602 100 322.106 100H307.802ZM313.322 94.912H321.338C323.066 94.912 324.378 94.448 325.274 93.52C326.17 92.56 326.618 91.408 326.618 90.064C326.618 88.656 326.154 87.488 325.226 86.56C324.33 85.632 323.034 85.168 321.338 85.168H313.322V94.912ZM313.322 80.176H320.858C322.554 80.176 323.818 79.776 324.65 78.976C325.514 78.144 325.946 77.072 325.946 75.76C325.946 74.416 325.514 73.36 324.65 72.592C323.818 71.824 322.554 71.44 320.858 71.44H313.322V80.176ZM340.181 100C339.861 100 339.589 99.888 339.365 99.664C339.141 99.44 339.029 99.168 339.029 98.848V67.072C339.029 66.752 339.141 66.48 339.365 66.256C339.589 66.032 339.861 65.92 340.181 65.92H344.165C344.485 65.92 344.757 66.032 344.981 66.256C345.205 66.48 345.317 66.752 345.317 67.072V98.848C345.317 99.168 345.205 99.44 344.981 99.664C344.757 99.888 344.485 100 344.165 100H340.181ZM362.724 100.48C360.164 100.48 358.004 100.032 356.244 99.136C354.516 98.24 353.188 96.976 352.26 95.344C351.364 93.712 350.852 91.808 350.724 89.632C350.692 89.056 350.676 88.352 350.676 87.52C350.676 86.688 350.692 85.984 350.724 85.408C350.852 83.2 351.38 81.296 352.308 79.696C353.268 78.064 354.612 76.8 356.34 75.904C358.1 75.008 360.228 74.56 362.724 74.56C365.22 74.56 367.332 75.008 369.06 75.904C370.82 76.8 372.164 78.064 373.092 79.696C374.052 81.296 374.596 83.2 374.724 85.408C374.756 85.984 374.772 86.688 374.772 87.52C374.772 88.352 374.756 89.056 374.724 89.632C374.596 91.808 374.068 93.712 373.14 95.344C372.244 96.976 370.916 98.24 369.156 99.136C367.428 100.032 365.284 100.48 362.724 100.48ZM362.724 95.728C364.42 95.728 365.732 95.2 366.66 94.144C367.588 93.056 368.1 91.472 368.196 89.392C368.228 88.912 368.244 88.288 368.244 87.52C368.244 86.752 368.228 86.128 368.196 85.648C368.1 83.568 367.588 82 366.66 80.944C365.732 79.856 364.42 79.312 362.724 79.312C361.028 79.312 359.716 79.856 358.788 80.944C357.86 82 357.348 83.568 357.252 85.648C357.22 86.128 357.204 86.752 357.204 87.52C357.204 88.288 357.22 88.912 357.252 89.392C357.348 91.472 357.86 93.056 358.788 94.144C359.716 95.2 361.028 95.728 362.724 95.728ZM390.89 100.48C388.586 100.48 386.554 100.048 384.794 99.184C383.066 98.32 381.706 97.072 380.714 95.44C379.754 93.776 379.226 91.776 379.13 89.44C379.098 88.96 379.082 88.336 379.082 87.568C379.082 86.768 379.098 86.112 379.13 85.6C379.226 83.264 379.754 81.28 380.714 79.648C381.706 77.984 383.066 76.72 384.794 75.856C386.554 74.992 388.586 74.56 390.89 74.56C392.938 74.56 394.682 74.848 396.122 75.424C397.562 75.968 398.746 76.688 399.674 77.584C400.602 78.448 401.29 79.36 401.738 80.32C402.218 81.248 402.474 82.096 402.506 82.864C402.538 83.216 402.426 83.504 402.17 83.728C401.946 83.92 401.674 84.016 401.354 84.016H397.13C396.81 84.016 396.554 83.936 396.362 83.776C396.202 83.616 396.042 83.376 395.882 83.056C395.402 81.776 394.762 80.88 393.962 80.368C393.194 79.824 392.202 79.552 390.986 79.552C389.386 79.552 388.106 80.064 387.146 81.088C386.218 82.08 385.722 83.664 385.658 85.84C385.594 87.056 385.594 88.176 385.658 89.2C385.722 91.408 386.218 93.008 387.146 94C388.106 94.992 389.386 95.488 390.986 95.488C392.234 95.488 393.242 95.232 394.01 94.72C394.778 94.176 395.402 93.264 395.882 91.984C396.042 91.664 396.202 91.424 396.362 91.264C396.554 91.104 396.81 91.024 397.13 91.024H401.354C401.674 91.024 401.946 91.136 402.17 91.36C402.426 91.552 402.538 91.824 402.506 92.176C402.474 92.752 402.314 93.408 402.026 94.144C401.77 94.848 401.338 95.584 400.73 96.352C400.154 97.088 399.418 97.776 398.522 98.416C397.626 99.024 396.538 99.52 395.258 99.904C394.01 100.288 392.554 100.48 390.89 100.48ZM408.712 100C408.392 100 408.12 99.888 407.896 99.664C407.672 99.44 407.56 99.168 407.56 98.848V67.072C407.56 66.752 407.672 66.48 407.896 66.256C408.12 66.032 408.392 65.92 408.712 65.92H412.6C412.952 65.92 413.224 66.032 413.416 66.256C413.64 66.48 413.752 66.752 413.752 67.072V83.488L421.816 75.856C422.136 75.6 422.392 75.408 422.584 75.28C422.808 75.12 423.144 75.04 423.592 75.04H428.056C428.376 75.04 428.632 75.136 428.824 75.328C429.016 75.52 429.112 75.776 429.112 76.096C429.112 76.224 429.08 76.368 429.016 76.528C428.952 76.688 428.824 76.832 428.632 76.96L418.744 86.224L429.832 98.128C430.152 98.448 430.312 98.72 430.312 98.944C430.312 99.264 430.2 99.52 429.976 99.712C429.784 99.904 429.544 100 429.256 100H424.696C424.216 100 423.864 99.936 423.64 99.808C423.448 99.648 423.208 99.44 422.92 99.184L413.752 89.536V98.848C413.752 99.168 413.64 99.44 413.416 99.664C413.224 99.888 412.952 100 412.6 100H408.712ZM443.531 100.48C441.227 100.48 439.195 100.048 437.435 99.184C435.707 98.32 434.347 97.072 433.355 95.44C432.395 93.776 431.867 91.776 431.771 89.44C431.739 88.96 431.723 88.336 431.723 87.568C431.723 86.768 431.739 86.112 431.771 85.6C431.867 83.264 432.395 81.28 433.355 79.648C434.347 77.984 435.707 76.72 437.435 75.856C439.195 74.992 441.227 74.56 443.531 74.56C445.579 74.56 447.323 74.848 448.763 75.424C450.203 75.968 451.387 76.688 452.315 77.584C453.243 78.448 453.931 79.36 454.379 80.32C454.859 81.248 455.115 82.096 455.147 82.864C455.179 83.216 455.067 83.504 454.811 83.728C454.587 83.92 454.315 84.016 453.995 84.016H449.771C449.451 84.016 449.195 83.936 449.003 83.776C448.843 83.616 448.683 83.376 448.523 83.056C448.043 81.776 447.403 80.88 446.603 80.368C445.835 79.824 444.843 79.552 443.627 79.552C442.027 79.552 440.747 80.064 439.787 81.088C438.859 82.08 438.363 83.664 438.299 85.84C438.235 87.056 438.235 88.176 438.299 89.2C438.363 91.408 438.859 93.008 439.787 94C440.747 94.992 442.027 95.488 443.627 95.488C444.875 95.488 445.883 95.232 446.651 94.72C447.419 94.176 448.043 93.264 448.523 91.984C448.683 91.664 448.843 91.424 449.003 91.264C449.195 91.104 449.451 91.024 449.771 91.024H453.995C454.315 91.024 454.587 91.136 454.811 91.36C455.067 91.552 455.179 91.824 455.147 92.176C455.115 92.752 454.955 93.408 454.667 94.144C454.411 94.848 453.979 95.584 453.371 96.352C452.795 97.088 452.059 97.776 451.163 98.416C450.267 99.024 449.179 99.52 447.899 99.904C446.651 100.288 445.195 100.48 443.531 100.48ZM461.352 100C461.032 100 460.76 99.888 460.536 99.664C460.312 99.44 460.2 99.168 460.2 98.848V67.072C460.2 66.752 460.312 66.48 460.536 66.256C460.76 66.032 461.032 65.92 461.352 65.92H465.624C465.976 65.92 466.248 66.032 466.44 66.256C466.664 66.48 466.776 66.752 466.776 67.072V78.016C467.64 76.992 468.696 76.16 469.944 75.52C471.192 74.88 472.728 74.56 474.552 74.56C476.504 74.56 478.2 75.008 479.64 75.904C481.112 76.768 482.248 78 483.048 79.6C483.848 81.2 484.248 83.12 484.248 85.36V98.848C484.248 99.168 484.136 99.44 483.912 99.664C483.688 99.888 483.416 100 483.096 100H478.776C478.456 100 478.184 99.888 477.96 99.664C477.736 99.44 477.624 99.168 477.624 98.848V85.648C477.624 83.792 477.16 82.336 476.232 81.28C475.336 80.224 474.024 79.696 472.296 79.696C470.632 79.696 469.288 80.224 468.264 81.28C467.272 82.336 466.776 83.792 466.776 85.648V98.848C466.776 99.168 466.664 99.44 466.44 99.664C466.248 99.888 465.976 100 465.624 100H461.352ZM497.588 100.48C495.924 100.48 494.42 100.16 493.076 99.52C491.732 98.848 490.66 97.968 489.86 96.88C489.092 95.76 488.708 94.512 488.708 93.136C488.708 90.896 489.62 89.12 491.444 87.808C493.268 86.464 495.652 85.568 498.596 85.12L505.172 84.16V83.152C505.172 81.808 504.836 80.768 504.164 80.032C503.492 79.296 502.34 78.928 500.708 78.928C499.556 78.928 498.612 79.168 497.876 79.648C497.172 80.096 496.644 80.704 496.292 81.472C496.036 81.888 495.668 82.096 495.188 82.096H491.396C491.044 82.096 490.772 82 490.58 81.808C490.42 81.616 490.34 81.36 490.34 81.04C490.372 80.528 490.58 79.904 490.964 79.168C491.38 78.432 491.988 77.728 492.788 77.056C493.62 76.352 494.692 75.76 496.004 75.28C497.316 74.8 498.9 74.56 500.756 74.56C502.772 74.56 504.468 74.816 505.844 75.328C507.252 75.808 508.372 76.464 509.204 77.296C510.036 78.128 510.644 79.104 511.028 80.224C511.412 81.344 511.604 82.528 511.604 83.776V98.848C511.604 99.168 511.492 99.44 511.268 99.664C511.044 99.888 510.772 100 510.452 100H506.564C506.212 100 505.924 99.888 505.7 99.664C505.508 99.44 505.412 99.168 505.412 98.848V96.976C504.996 97.552 504.436 98.112 503.732 98.656C503.028 99.2 502.164 99.648 501.14 100C500.148 100.32 498.964 100.48 497.588 100.48ZM499.22 95.92C500.34 95.92 501.348 95.68 502.244 95.2C503.172 94.72 503.892 93.984 504.404 92.992C504.948 91.968 505.22 90.688 505.22 89.152V88.144L500.42 88.912C498.532 89.2 497.124 89.664 496.196 90.304C495.268 90.944 494.804 91.728 494.804 92.656C494.804 93.36 495.012 93.968 495.428 94.48C495.876 94.96 496.436 95.328 497.108 95.584C497.78 95.808 498.484 95.92 499.22 95.92ZM518.914 100C518.594 100 518.322 99.888 518.098 99.664C517.874 99.44 517.762 99.168 517.762 98.848V76.192C517.762 75.872 517.874 75.6 518.098 75.376C518.322 75.152 518.594 75.04 518.914 75.04H522.898C523.25 75.04 523.522 75.152 523.714 75.376C523.938 75.6 524.05 75.872 524.05 76.192V98.848C524.05 99.168 523.938 99.44 523.714 99.664C523.522 99.888 523.25 100 522.898 100H518.914ZM518.722 70.912C518.402 70.912 518.13 70.8 517.906 70.576C517.682 70.352 517.57 70.08 517.57 69.76V66.304C517.57 65.984 517.682 65.712 517.906 65.488C518.13 65.264 518.402 65.152 518.722 65.152H523.09C523.442 65.152 523.73 65.264 523.954 65.488C524.178 65.712 524.29 65.984 524.29 66.304V69.76C524.29 70.08 524.178 70.352 523.954 70.576C523.73 70.8 523.442 70.912 523.09 70.912H518.722ZM531.57 100C531.25 100 530.978 99.888 530.754 99.664C530.53 99.44 530.418 99.168 530.418 98.848V76.192C530.418 75.872 530.53 75.6 530.754 75.376C530.978 75.152 531.25 75.04 531.57 75.04H535.506C535.826 75.04 536.098 75.152 536.322 75.376C536.546 75.6 536.658 75.872 536.658 76.192V78.16C537.49 77.136 538.546 76.288 539.826 75.616C541.138 74.912 542.754 74.56 544.674 74.56C546.626 74.56 548.322 75.008 549.762 75.904C551.202 76.768 552.306 78 553.074 79.6C553.874 81.2 554.274 83.12 554.274 85.36V98.848C554.274 99.168 554.162 99.44 553.938 99.664C553.714 99.888 553.442 100 553.122 100H548.898C548.578 100 548.306 99.888 548.082 99.664C547.858 99.44 547.746 99.168 547.746 98.848V85.648C547.746 83.792 547.282 82.336 546.354 81.28C545.458 80.224 544.146 79.696 542.418 79.696C540.754 79.696 539.426 80.224 538.434 81.28C537.442 82.336 536.946 83.792 536.946 85.648V98.848C536.946 99.168 536.834 99.44 536.61 99.664C536.386 99.888 536.114 100 535.794 100H531.57Z" fill="url(#paint0_linear_77_4201)"/>
<path d="M12.48 156C11.968 156 11.568 155.888 11.28 155.664C11.024 155.44 10.816 155.152 10.656 154.8L1.824 132.528C1.76 132.336 1.728 132.16 1.728 132C1.728 131.744 1.824 131.52 2.016 131.328C2.208 131.136 2.432 131.04 2.688 131.04H3.696C4.016 131.04 4.256 131.136 4.416 131.328C4.608 131.488 4.72 131.632 4.752 131.76L12.864 152.496L20.976 131.76C21.04 131.632 21.152 131.488 21.312 131.328C21.472 131.136 21.712 131.04 22.032 131.04H23.04C23.296 131.04 23.52 131.136 23.712 131.328C23.904 131.52 24 131.744 24 132C24 132.16 23.968 132.336 23.904 132.528L15.072 154.8C14.944 155.152 14.736 155.44 14.448 155.664C14.16 155.888 13.76 156 13.248 156H12.48ZM38.2826 156.48C35.9786 156.48 34.0426 156 32.4746 155.04C30.9386 154.08 29.7546 152.768 28.9226 151.104C28.1226 149.44 27.6906 147.584 27.6266 145.536C27.5946 145.056 27.5786 144.384 27.5786 143.52C27.5786 142.656 27.5946 141.984 27.6266 141.504C27.6906 139.424 28.1226 137.568 28.9226 135.936C29.7546 134.272 30.9386 132.96 32.4746 132C34.0426 131.04 35.9786 130.56 38.2826 130.56C40.5866 130.56 42.5066 131.04 44.0426 132C45.6106 132.96 46.7946 134.272 47.5946 135.936C48.4266 137.568 48.8746 139.424 48.9386 141.504C48.9706 141.984 48.9866 142.656 48.9866 143.52C48.9866 144.384 48.9706 145.056 48.9386 145.536C48.8746 147.584 48.4266 149.44 47.5946 151.104C46.7946 152.768 45.6106 154.08 44.0426 155.04C42.5066 156 40.5866 156.48 38.2826 156.48ZM38.2826 153.696C40.5226 153.696 42.3466 152.976 43.7546 151.536C45.1626 150.096 45.9146 148.016 46.0106 145.296C46.0426 144.816 46.0586 144.224 46.0586 143.52C46.0586 142.816 46.0426 142.224 46.0106 141.744C45.9146 138.992 45.1626 136.912 43.7546 135.504C42.3466 134.064 40.5226 133.344 38.2826 133.344C36.0426 133.344 34.2186 134.064 32.8106 135.504C31.4026 136.912 30.6506 138.992 30.5546 141.744C30.5226 142.224 30.5066 142.816 30.5066 143.52C30.5066 144.224 30.5226 144.816 30.5546 145.296C30.6506 148.016 31.4026 150.096 32.8106 151.536C34.2186 152.976 36.0426 153.696 38.2826 153.696ZM63.663 156C61.999 156 60.687 155.648 59.727 154.944C58.767 154.24 58.095 153.28 57.711 152.064C57.327 150.848 57.135 149.488 57.135 147.984V133.824H53.391C53.071 133.824 52.815 133.728 52.623 133.536C52.431 133.344 52.335 133.088 52.335 132.768V132.096C52.335 131.776 52.431 131.52 52.623 131.328C52.815 131.136 53.071 131.04 53.391 131.04H57.135V122.976C57.135 122.656 57.231 122.4 57.423 122.208C57.615 122.016 57.871 121.92 58.191 121.92H59.007C59.327 121.92 59.583 122.016 59.775 122.208C59.967 122.4 60.063 122.656 60.063 122.976V131.04H66.015C66.335 131.04 66.591 131.136 66.783 131.328C66.975 131.52 67.071 131.776 67.071 132.096V132.768C67.071 133.088 66.975 133.344 66.783 133.536C66.591 133.728 66.335 133.824 66.015 133.824H60.063V147.792C60.063 149.488 60.335 150.816 60.879 151.776C61.455 152.736 62.463 153.216 63.903 153.216H66.495C66.815 153.216 67.071 153.312 67.263 153.504C67.455 153.696 67.551 153.952 67.551 154.272V154.944C67.551 155.264 67.455 155.52 67.263 155.712C67.071 155.904 66.815 156 66.495 156H63.663ZM73.569 156C73.249 156 72.993 155.904 72.801 155.712C72.609 155.52 72.513 155.264 72.513 154.944V132.096C72.513 131.776 72.609 131.52 72.801 131.328C72.993 131.136 73.249 131.04 73.569 131.04H74.385C74.705 131.04 74.961 131.136 75.153 131.328C75.345 131.52 75.441 131.776 75.441 132.096V154.944C75.441 155.264 75.345 155.52 75.153 155.712C74.961 155.904 74.705 156 74.385 156H73.569ZM73.041 125.904C72.721 125.904 72.465 125.808 72.273 125.616C72.081 125.424 71.985 125.168 71.985 124.848V123.024C71.985 122.704 72.081 122.448 72.273 122.256C72.465 122.032 72.721 121.92 73.041 121.92H74.865C75.185 121.92 75.441 122.032 75.633 122.256C75.857 122.448 75.969 122.704 75.969 123.024V124.848C75.969 125.168 75.857 125.424 75.633 125.616C75.441 125.808 75.185 125.904 74.865 125.904H73.041ZM84.2565 156C83.9365 156 83.6805 155.904 83.4885 155.712C83.2965 155.52 83.2005 155.264 83.2005 154.944V132.096C83.2005 131.776 83.2965 131.52 83.4885 131.328C83.6805 131.136 83.9365 131.04 84.2565 131.04H85.0725C85.3925 131.04 85.6485 131.136 85.8405 131.328C86.0325 131.52 86.1285 131.776 86.1285 132.096V134.352C86.9925 133.232 88.0325 132.32 89.2485 131.616C90.4965 130.912 92.1445 130.56 94.1925 130.56C96.3685 130.56 98.1765 131.04 99.6165 132C101.089 132.928 102.177 134.208 102.881 135.84C103.617 137.44 103.984 139.264 103.984 141.312V154.944C103.984 155.264 103.889 155.52 103.697 155.712C103.505 155.904 103.249 156 102.929 156H102.113C101.793 156 101.537 155.904 101.345 155.712C101.153 155.52 101.057 155.264 101.057 154.944V141.552C101.057 138.992 100.433 136.992 99.1845 135.552C97.9365 134.08 96.1125 133.344 93.7125 133.344C91.4405 133.344 89.6005 134.08 88.1925 135.552C86.8165 136.992 86.1285 138.992 86.1285 141.552V154.944C86.1285 155.264 86.0325 155.52 85.8405 155.712C85.6485 155.904 85.3925 156 85.0725 156H84.2565ZM120.825 166.56C118.777 166.56 117.097 166.288 115.785 165.744C114.505 165.2 113.497 164.528 112.761 163.728C112.057 162.96 111.561 162.176 111.273 161.376C110.985 160.608 110.825 159.984 110.793 159.504C110.761 159.184 110.857 158.912 111.081 158.688C111.305 158.496 111.561 158.4 111.849 158.4H112.521C112.777 158.4 113.001 158.448 113.193 158.544C113.385 158.672 113.545 158.96 113.673 159.408C113.865 159.92 114.169 160.512 114.585 161.184C115.033 161.888 115.721 162.496 116.649 163.008C117.609 163.52 118.921 163.776 120.585 163.776C122.345 163.776 123.817 163.552 125.001 163.104C126.185 162.656 127.081 161.856 127.689 160.704C128.329 159.584 128.649 158.016 128.649 156V152.688C127.849 153.776 126.793 154.688 125.481 155.424C124.201 156.128 122.569 156.48 120.585 156.48C118.729 156.48 117.145 156.144 115.833 155.472C114.553 154.8 113.513 153.904 112.713 152.784C111.913 151.664 111.321 150.416 110.937 149.04C110.553 147.664 110.345 146.272 110.313 144.864C110.281 143.968 110.281 143.072 110.313 142.176C110.345 140.768 110.553 139.376 110.937 138C111.321 136.624 111.913 135.376 112.713 134.256C113.513 133.136 114.553 132.24 115.833 131.568C117.145 130.896 118.729 130.56 120.585 130.56C122.569 130.56 124.201 130.928 125.481 131.664C126.793 132.4 127.849 133.296 128.649 134.352V132.144C128.649 131.824 128.745 131.568 128.937 131.376C129.129 131.152 129.385 131.04 129.705 131.04H130.473C130.793 131.04 131.049 131.152 131.241 131.376C131.465 131.568 131.577 131.824 131.577 132.144V155.52C131.577 157.568 131.273 159.424 130.665 161.088C130.057 162.752 128.969 164.08 127.401 165.072C125.865 166.064 123.673 166.56 120.825 166.56ZM120.873 153.696C122.697 153.696 124.169 153.264 125.289 152.4C126.409 151.536 127.225 150.464 127.737 149.184C128.281 147.872 128.585 146.56 128.649 145.248C128.681 144.768 128.697 144.192 128.697 143.52C128.697 142.848 128.681 142.272 128.649 141.792C128.585 140.48 128.281 139.184 127.737 137.904C127.225 136.592 126.409 135.504 125.289 134.64C124.169 133.776 122.697 133.344 120.873 133.344C119.017 133.344 117.529 133.76 116.409 134.592C115.321 135.424 114.537 136.512 114.057 137.856C113.577 139.2 113.305 140.64 113.241 142.176C113.209 143.072 113.209 143.968 113.241 144.864C113.305 146.4 113.577 147.84 114.057 149.184C114.537 150.528 115.321 151.616 116.409 152.448C117.529 153.28 119.017 153.696 120.873 153.696ZM152.883 165.12C152.563 165.12 152.307 165.024 152.115 164.832C151.923 164.64 151.827 164.384 151.827 164.064V132.096C151.827 131.776 151.923 131.52 152.115 131.328C152.307 131.136 152.563 131.04 152.883 131.04H153.699C154.019 131.04 154.275 131.136 154.467 131.328C154.659 131.52 154.755 131.776 154.755 132.096V134.352C155.555 133.264 156.595 132.368 157.875 131.664C159.187 130.928 160.835 130.56 162.819 130.56C164.707 130.56 166.291 130.896 167.571 131.568C168.851 132.208 169.891 133.072 170.691 134.16C171.491 135.248 172.083 136.464 172.467 137.808C172.851 139.152 173.059 140.528 173.091 141.936C173.123 142.416 173.139 142.944 173.139 143.52C173.139 144.096 173.123 144.624 173.091 145.104C173.059 146.512 172.851 147.888 172.467 149.232C172.083 150.576 171.491 151.792 170.691 152.88C169.891 153.968 168.851 154.848 167.571 155.52C166.291 156.16 164.707 156.48 162.819 156.48C160.835 156.48 159.187 156.112 157.875 155.376C156.595 154.64 155.555 153.744 154.755 152.688V164.064C154.755 164.384 154.659 164.64 154.467 164.832C154.275 165.024 154.019 165.12 153.699 165.12H152.883ZM162.531 153.696C164.419 153.696 165.907 153.28 166.995 152.448C168.083 151.616 168.867 150.528 169.347 149.184C169.827 147.84 170.099 146.4 170.163 144.864C170.195 143.968 170.195 143.072 170.163 142.176C170.099 140.64 169.827 139.2 169.347 137.856C168.867 136.512 168.083 135.424 166.995 134.592C165.907 133.76 164.419 133.344 162.531 133.344C160.707 133.344 159.235 133.776 158.115 134.64C156.995 135.504 156.163 136.592 155.619 137.904C155.107 139.184 154.819 140.48 154.755 141.792C154.723 142.272 154.707 142.896 154.707 143.664C154.707 144.432 154.723 145.056 154.755 145.536C154.787 146.816 155.075 148.08 155.619 149.328C156.195 150.576 157.043 151.616 158.163 152.448C159.315 153.28 160.771 153.696 162.531 153.696ZM180.773 156C180.453 156 180.197 155.904 180.005 155.712C179.813 155.52 179.717 155.264 179.717 154.944V122.976C179.717 122.656 179.813 122.4 180.005 122.208C180.197 122.016 180.453 121.92 180.773 121.92H181.589C181.909 121.92 182.165 122.016 182.357 122.208C182.549 122.4 182.645 122.656 182.645 122.976V154.944C182.645 155.264 182.549 155.52 182.357 155.712C182.165 155.904 181.909 156 181.589 156H180.773ZM197.171 156.48C195.635 156.48 194.211 156.16 192.898 155.52C191.619 154.88 190.579 154.032 189.779 152.976C188.979 151.888 188.579 150.672 188.579 149.328C188.579 147.152 189.459 145.408 191.219 144.096C192.979 142.784 195.267 141.936 198.083 141.552L205.667 140.496V138.816C205.667 137.12 205.139 135.792 204.083 134.832C203.059 133.84 201.411 133.344 199.139 133.344C197.475 133.344 196.131 133.68 195.107 134.352C194.083 134.992 193.379 135.84 192.995 136.896C192.835 137.376 192.531 137.616 192.083 137.616H191.315C190.931 137.616 190.659 137.52 190.499 137.328C190.339 137.104 190.259 136.848 190.259 136.56C190.259 136.112 190.419 135.552 190.739 134.88C191.091 134.208 191.619 133.552 192.323 132.912C193.027 132.24 193.939 131.68 195.059 131.232C196.179 130.784 197.539 130.56 199.139 130.56C201.027 130.56 202.579 130.816 203.795 131.328C205.043 131.84 206.003 132.512 206.675 133.344C207.379 134.144 207.875 135.04 208.163 136.032C208.451 137.024 208.595 138 208.595 138.96V154.944C208.595 155.264 208.499 155.52 208.307 155.712C208.115 155.904 207.859 156 207.539 156H206.723C206.403 156 206.147 155.904 205.955 155.712C205.763 155.52 205.667 155.264 205.667 154.944V152.688C205.283 153.264 204.739 153.84 204.035 154.416C203.331 154.992 202.419 155.488 201.299 155.904C200.211 156.288 198.835 156.48 197.171 156.48ZM197.651 153.696C199.123 153.696 200.467 153.376 201.683 152.736C202.899 152.096 203.859 151.12 204.563 149.808C205.299 148.464 205.667 146.784 205.667 144.768V143.136L199.475 144C196.851 144.352 194.867 144.96 193.523 145.824C192.179 146.688 191.507 147.776 191.507 149.088C191.507 150.144 191.811 151.008 192.419 151.68C193.027 152.352 193.795 152.864 194.723 153.216C195.683 153.536 196.659 153.696 197.651 153.696ZM224.351 156C222.687 156 221.375 155.648 220.415 154.944C219.455 154.24 218.783 153.28 218.398 152.064C218.015 150.848 217.823 149.488 217.823 147.984V133.824H214.079C213.759 133.824 213.503 133.728 213.311 133.536C213.119 133.344 213.023 133.088 213.023 132.768V132.096C213.023 131.776 213.119 131.52 213.311 131.328C213.503 131.136 213.759 131.04 214.079 131.04H217.823V122.976C217.823 122.656 217.919 122.4 218.111 122.208C218.303 122.016 218.559 121.92 218.879 121.92H219.695C220.015 121.92 220.271 122.016 220.463 122.208C220.655 122.4 220.751 122.656 220.751 122.976V131.04H226.703C227.023 131.04 227.279 131.136 227.471 131.328C227.663 131.52 227.759 131.776 227.759 132.096V132.768C227.759 133.088 227.663 133.344 227.471 133.536C227.279 133.728 227.023 133.824 226.703 133.824H220.751V147.792C220.751 149.488 221.023 150.816 221.567 151.776C222.143 152.736 223.151 153.216 224.591 153.216H227.183C227.503 153.216 227.759 153.312 227.951 153.504C228.143 153.696 228.239 153.952 228.239 154.272V154.944C228.239 155.264 228.143 155.52 227.951 155.712C227.759 155.904 227.503 156 227.183 156H224.351ZM236.609 156C236.289 156 236.033 155.904 235.841 155.712C235.649 155.52 235.553 155.264 235.553 154.944V133.824H231.281C230.961 133.824 230.705 133.728 230.513 133.536C230.321 133.344 230.225 133.088 230.225 132.768V132.096C230.225 131.776 230.321 131.52 230.513 131.328C230.705 131.136 230.961 131.04 231.281 131.04H235.553V128.304C235.553 126.864 235.745 125.552 236.129 124.368C236.545 123.184 237.265 122.24 238.289 121.536C239.345 120.832 240.849 120.48 242.801 120.48H245.297C245.617 120.48 245.873 120.576 246.065 120.768C246.257 120.96 246.353 121.216 246.353 121.536V122.208C246.353 122.528 246.257 122.784 246.065 122.976C245.873 123.168 245.617 123.264 245.297 123.264H242.801C241.105 123.264 239.953 123.728 239.345 124.656C238.769 125.552 238.481 126.848 238.481 128.544V131.04H244.817C245.137 131.04 245.393 131.136 245.585 131.328C245.777 131.52 245.873 131.776 245.873 132.096V132.768C245.873 133.088 245.777 133.344 245.585 133.536C245.393 133.728 245.137 133.824 244.817 133.824H238.481V154.944C238.481 155.264 238.385 155.52 238.193 155.712C238.001 155.904 237.745 156 237.425 156H236.609ZM259.486 156.48C257.182 156.48 255.246 156 253.678 155.04C252.142 154.08 250.958 152.768 250.126 151.104C249.326 149.44 248.894 147.584 248.83 145.536C248.798 145.056 248.782 144.384 248.782 143.52C248.782 142.656 248.798 141.984 248.83 141.504C248.894 139.424 249.326 137.568 250.126 135.936C250.958 134.272 252.142 132.96 253.678 132C255.246 131.04 257.182 130.56 259.486 130.56C261.79 130.56 263.71 131.04 265.246 132C266.814 132.96 267.998 134.272 268.798 135.936C269.63 137.568 270.078 139.424 270.142 141.504C270.174 141.984 270.19 142.656 270.19 143.52C270.19 144.384 270.174 145.056 270.142 145.536C270.078 147.584 269.63 149.44 268.798 151.104C267.998 152.768 266.814 154.08 265.246 155.04C263.71 156 261.79 156.48 259.486 156.48ZM259.486 153.696C261.726 153.696 263.55 152.976 264.958 151.536C266.366 150.096 267.118 148.016 267.214 145.296C267.246 144.816 267.262 144.224 267.262 143.52C267.262 142.816 267.246 142.224 267.214 141.744C267.118 138.992 266.366 136.912 264.958 135.504C263.55 134.064 261.726 133.344 259.486 133.344C257.246 133.344 255.422 134.064 254.014 135.504C252.606 136.912 251.854 138.992 251.758 141.744C251.726 142.224 251.71 142.816 251.71 143.52C251.71 144.224 251.726 144.816 251.758 145.296C251.854 148.016 252.606 150.096 254.014 151.536C255.422 152.976 257.246 153.696 259.486 153.696ZM277.803 156C277.483 156 277.227 155.904 277.035 155.712C276.843 155.52 276.747 155.264 276.747 154.944V132.144C276.747 131.824 276.843 131.568 277.035 131.376C277.227 131.152 277.483 131.04 277.803 131.04H278.571C278.891 131.04 279.147 131.152 279.339 131.376C279.563 131.568 279.675 131.824 279.675 132.144V134.352C280.251 133.232 281.083 132.4 282.171 131.856C283.259 131.312 284.603 131.04 286.203 131.04H287.979C288.299 131.04 288.555 131.136 288.747 131.328C288.939 131.52 289.035 131.776 289.035 132.096V132.768C289.035 133.088 288.939 133.344 288.747 133.536C288.555 133.728 288.299 133.824 287.979 133.824H285.915C283.995 133.824 282.475 134.384 281.355 135.504C280.235 136.624 279.675 138.144 279.675 140.064V154.944C279.675 155.264 279.563 155.52 279.339 155.712C279.147 155.904 278.891 156 278.571 156H277.803ZM294.491 156C294.171 156 293.915 155.904 293.723 155.712C293.531 155.52 293.435 155.264 293.435 154.944V132.096C293.435 131.776 293.531 131.52 293.723 131.328C293.915 131.136 294.171 131.04 294.491 131.04H295.307C295.627 131.04 295.883 131.136 296.075 131.328C296.267 131.52 296.363 131.776 296.363 132.096V133.776C297.163 132.752 298.107 131.968 299.195 131.424C300.315 130.848 301.659 130.56 303.227 130.56C306.811 130.56 309.371 132.064 310.907 135.072C311.643 133.696 312.715 132.608 314.123 131.808C315.563 130.976 317.211 130.56 319.067 130.56C320.763 130.56 322.283 130.96 323.627 131.76C325.003 132.528 326.075 133.68 326.843 135.216C327.643 136.752 328.043 138.672 328.043 140.976V154.944C328.043 155.264 327.947 155.52 327.755 155.712C327.563 155.904 327.307 156 326.987 156H326.171C325.851 156 325.595 155.904 325.403 155.712C325.211 155.52 325.115 155.264 325.115 154.944V141.456C325.115 139.344 324.811 137.712 324.203 136.56C323.595 135.376 322.795 134.544 321.803 134.064C320.811 133.584 319.739 133.344 318.587 133.344C317.627 133.344 316.651 133.584 315.659 134.064C314.667 134.544 313.835 135.376 313.163 136.56C312.523 137.712 312.203 139.344 312.203 141.456V154.944C312.203 155.264 312.107 155.52 311.915 155.712C311.723 155.904 311.467 156 311.147 156H310.331C310.011 156 309.755 155.904 309.563 155.712C309.371 155.52 309.275 155.264 309.275 154.944V141.456C309.275 139.344 308.955 137.712 308.315 136.56C307.675 135.376 306.859 134.544 305.867 134.064C304.875 133.584 303.835 133.344 302.747 133.344C301.787 133.344 300.811 133.584 299.819 134.064C298.827 134.544 297.995 135.376 297.323 136.56C296.683 137.712 296.363 139.328 296.363 141.408V154.944C296.363 155.264 296.267 155.52 296.075 155.712C295.883 155.904 295.627 156 295.307 156H294.491Z" fill="white"/>
<path d="M3.61375 238C3.37908 238 3.19775 237.936 3.06975 237.808C2.94175 237.659 2.87775 237.477 2.87775 237.264V216.336C2.87775 216.123 2.94175 215.952 3.06975 215.824C3.19775 215.675 3.37908 215.6 3.61375 215.6H5.30975C5.54442 215.6 5.72575 215.675 5.85375 215.824C5.98175 215.952 6.04575 216.123 6.04575 216.336V237.264C6.04575 237.477 5.98175 237.659 5.85375 237.808C5.72575 237.936 5.54442 238 5.30975 238H3.61375ZM11.9478 238C11.7344 238 11.5531 237.936 11.4038 237.808C11.2758 237.659 11.2118 237.477 11.2118 237.264V222.096C11.2118 221.883 11.2758 221.712 11.4038 221.584C11.5531 221.435 11.7344 221.36 11.9478 221.36H13.3878C13.6011 221.36 13.7718 221.435 13.8998 221.584C14.0491 221.712 14.1238 221.883 14.1238 222.096V223.216C14.6144 222.555 15.2331 222.032 15.9798 221.648C16.7264 221.243 17.6224 221.04 18.6678 221.04C21.0784 221.019 22.7851 222 23.7878 223.984C24.2784 223.088 24.9931 222.373 25.9318 221.84C26.8704 221.307 27.9371 221.04 29.1318 221.04C30.2411 221.04 31.2438 221.296 32.1398 221.808C33.0571 222.32 33.7718 223.099 34.2838 224.144C34.8171 225.168 35.0838 226.459 35.0838 228.016V237.264C35.0838 237.477 35.0091 237.659 34.8598 237.808C34.7318 237.936 34.5611 238 34.3478 238H32.8438C32.6304 238 32.4491 237.936 32.2998 237.808C32.1718 237.659 32.1078 237.477 32.1078 237.264V228.304C32.1078 227.109 31.9371 226.171 31.5958 225.488C31.2544 224.805 30.7958 224.325 30.2198 224.048C29.6438 223.771 29.0144 223.632 28.3318 223.632C27.7771 223.632 27.2118 223.771 26.6358 224.048C26.0598 224.325 25.5798 224.805 25.1958 225.488C24.8331 226.171 24.6518 227.109 24.6518 228.304V237.264C24.6518 237.477 24.5771 237.659 24.4278 237.808C24.2998 237.936 24.1291 238 23.9158 238H22.4118C22.1984 238 22.0171 237.936 21.8678 237.808C21.7398 237.659 21.6758 237.477 21.6758 237.264V228.304C21.6758 227.109 21.4944 226.171 21.1318 225.488C20.7691 224.805 20.2998 224.325 19.7238 224.048C19.1478 223.771 18.5398 223.632 17.8998 223.632C17.3451 223.632 16.7798 223.771 16.2038 224.048C15.6278 224.325 15.1478 224.805 14.7638 225.488C14.4011 226.171 14.2198 227.099 14.2198 228.272V237.264C14.2198 237.477 14.1451 237.659 13.9958 237.808C13.8678 237.936 13.6971 238 13.4838 238H11.9478ZM40.3853 238C40.1719 238 39.9906 237.936 39.8413 237.808C39.7133 237.659 39.6493 237.477 39.6493 237.264V222.096C39.6493 221.883 39.7133 221.712 39.8413 221.584C39.9906 221.435 40.1719 221.36 40.3853 221.36H41.8253C42.0386 221.36 42.2093 221.435 42.3373 221.584C42.4866 221.712 42.5613 221.883 42.5613 222.096V223.216C43.0519 222.555 43.6706 222.032 44.4173 221.648C45.1639 221.243 46.0599 221.04 47.1053 221.04C49.5159 221.019 51.2226 222 52.2253 223.984C52.7159 223.088 53.4306 222.373 54.3693 221.84C55.3079 221.307 56.3746 221.04 57.5693 221.04C58.6786 221.04 59.6813 221.296 60.5773 221.808C61.4946 222.32 62.2093 223.099 62.7213 224.144C63.2546 225.168 63.5213 226.459 63.5213 228.016V237.264C63.5213 237.477 63.4466 237.659 63.2973 237.808C63.1693 237.936 62.9986 238 62.7853 238H61.2813C61.0679 238 60.8866 237.936 60.7373 237.808C60.6093 237.659 60.5453 237.477 60.5453 237.264V228.304C60.5453 227.109 60.3746 226.171 60.0333 225.488C59.6919 224.805 59.2333 224.325 58.6573 224.048C58.0813 223.771 57.4519 223.632 56.7693 223.632C56.2146 223.632 55.6493 223.771 55.0733 224.048C54.4973 224.325 54.0173 224.805 53.6333 225.488C53.2706 226.171 53.0893 227.109 53.0893 228.304V237.264C53.0893 237.477 53.0146 237.659 52.8653 237.808C52.7373 237.936 52.5666 238 52.3533 238H50.8493C50.6359 238 50.4546 237.936 50.3053 237.808C50.1773 237.659 50.1133 237.477 50.1133 237.264V228.304C50.1133 227.109 49.9319 226.171 49.5693 225.488C49.2066 224.805 48.7373 224.325 48.1613 224.048C47.5853 223.771 46.9773 223.632 46.3373 223.632C45.7826 223.632 45.2173 223.771 44.6413 224.048C44.0653 224.325 43.5853 224.805 43.2013 225.488C42.8386 226.171 42.6573 227.099 42.6573 228.272V237.264C42.6573 237.477 42.5826 237.659 42.4333 237.808C42.3053 237.936 42.1346 238 41.9213 238H40.3853ZM74.2948 238.32C72.9294 238.32 71.7668 238.021 70.8068 237.424C69.8681 236.805 69.1534 235.952 68.6628 234.864C68.1721 233.776 67.9268 232.528 67.9268 231.12V222.096C67.9268 221.883 67.9908 221.712 68.1188 221.584C68.2681 221.435 68.4494 221.36 68.6628 221.36H70.2628C70.4761 221.36 70.6468 221.435 70.7748 221.584C70.9241 221.712 70.9988 221.883 70.9988 222.096V230.96C70.9988 234.139 72.3854 235.728 75.1588 235.728C76.4814 235.728 77.5374 235.312 78.3268 234.48C79.1374 233.627 79.5428 232.453 79.5428 230.96V222.096C79.5428 221.883 79.6068 221.712 79.7348 221.584C79.8841 221.435 80.0654 221.36 80.2788 221.36H81.8787C82.0921 221.36 82.2628 221.435 82.3908 221.584C82.5188 221.712 82.5828 221.883 82.5828 222.096V237.264C82.5828 237.477 82.5188 237.659 82.3908 237.808C82.2628 237.936 82.0921 238 81.8787 238H80.3748C80.1614 238 79.9801 237.936 79.8308 237.808C79.7028 237.659 79.6388 237.477 79.6388 237.264V235.856C79.0628 236.603 78.3588 237.2 77.5268 237.648C76.7161 238.096 75.6388 238.32 74.2948 238.32ZM93.8328 238C92.6381 238 91.6674 237.776 90.9208 237.328C90.1741 236.859 89.6301 236.208 89.2888 235.376C88.9474 234.523 88.7768 233.52 88.7768 232.368V223.92H86.2808C86.0674 223.92 85.8861 223.856 85.7368 223.728C85.6088 223.579 85.5448 223.397 85.5448 223.184V222.096C85.5448 221.883 85.6088 221.712 85.7368 221.584C85.8861 221.435 86.0674 221.36 86.2808 221.36H88.7768V216.016C88.7768 215.803 88.8408 215.632 88.9688 215.504C89.1181 215.355 89.2994 215.28 89.5128 215.28H91.0168C91.2301 215.28 91.4008 215.355 91.5288 215.504C91.6781 215.632 91.7528 215.803 91.7528 216.016V221.36H95.7208C95.9554 221.36 96.1368 221.435 96.2648 221.584C96.3928 221.712 96.4568 221.883 96.4568 222.096V223.184C96.4568 223.397 96.3928 223.579 96.2648 223.728C96.1368 223.856 95.9554 223.92 95.7208 223.92H91.7528V232.144C91.7528 233.147 91.9234 233.936 92.2648 234.512C92.6061 235.088 93.2141 235.376 94.0888 235.376H96.0408C96.2541 235.376 96.4248 235.451 96.5528 235.6C96.7021 235.728 96.7768 235.899 96.7768 236.112V237.264C96.7768 237.477 96.7021 237.659 96.5528 237.808C96.4248 237.936 96.2541 238 96.0408 238H93.8328ZM104.477 238.32C103.41 238.32 102.439 238.107 101.565 237.68C100.69 237.253 99.9861 236.677 99.4528 235.952C98.9194 235.227 98.6528 234.405 98.6528 233.488C98.6528 232.016 99.2501 230.843 100.445 229.968C101.639 229.093 103.197 228.517 105.117 228.24L109.885 227.568V226.64C109.885 225.616 109.586 224.816 108.989 224.24C108.413 223.664 107.463 223.376 106.141 223.376C105.202 223.376 104.434 223.568 103.837 223.952C103.239 224.336 102.823 224.827 102.589 225.424C102.461 225.744 102.237 225.904 101.917 225.904H100.477C100.242 225.904 100.061 225.84 99.9328 225.712C99.8261 225.563 99.7728 225.392 99.7728 225.2C99.7728 224.88 99.8901 224.485 100.125 224.016C100.381 223.547 100.765 223.088 101.277 222.64C101.789 222.192 102.439 221.819 103.229 221.52C104.039 221.2 105.021 221.04 106.173 221.04C107.453 221.04 108.53 221.211 109.405 221.552C110.279 221.872 110.962 222.309 111.453 222.864C111.965 223.419 112.327 224.048 112.541 224.752C112.775 225.456 112.893 226.171 112.893 226.896V237.264C112.893 237.477 112.818 237.659 112.669 237.808C112.541 237.936 112.37 238 112.157 238H110.685C110.45 238 110.269 237.936 110.141 237.808C110.013 237.659 109.949 237.477 109.949 237.264V235.888C109.671 236.272 109.298 236.656 108.829 237.04C108.359 237.403 107.773 237.712 107.069 237.968C106.365 238.203 105.501 238.32 104.477 238.32ZM105.149 235.92C106.023 235.92 106.823 235.739 107.549 235.376C108.274 234.992 108.839 234.405 109.245 233.616C109.671 232.827 109.885 231.835 109.885 230.64V229.744L106.173 230.288C104.658 230.501 103.517 230.864 102.749 231.376C101.981 231.867 101.597 232.496 101.597 233.264C101.597 233.861 101.767 234.363 102.109 234.768C102.471 235.152 102.919 235.44 103.453 235.632C104.007 235.824 104.573 235.92 105.149 235.92ZM125.717 238.32C124.437 238.32 123.37 238.096 122.517 237.648C121.664 237.179 120.981 236.603 120.469 235.92V237.264C120.469 237.477 120.394 237.659 120.245 237.808C120.117 237.936 119.946 238 119.733 238H118.261C118.048 238 117.866 237.936 117.717 237.808C117.589 237.659 117.525 237.477 117.525 237.264V216.016C117.525 215.803 117.589 215.632 117.717 215.504C117.866 215.355 118.048 215.28 118.261 215.28H119.829C120.042 215.28 120.213 215.355 120.341 215.504C120.469 215.632 120.533 215.803 120.533 216.016V223.376C121.066 222.715 121.749 222.16 122.581 221.712C123.434 221.264 124.48 221.04 125.717 221.04C126.912 221.04 127.925 221.253 128.757 221.68C129.61 222.085 130.304 222.651 130.837 223.376C131.392 224.101 131.808 224.923 132.085 225.84C132.362 226.757 132.522 227.717 132.565 228.72C132.586 229.061 132.597 229.381 132.597 229.68C132.597 229.979 132.586 230.299 132.565 230.64C132.522 231.664 132.362 232.635 132.085 233.552C131.808 234.469 131.392 235.291 130.837 236.016C130.304 236.72 129.61 237.285 128.757 237.712C127.925 238.117 126.912 238.32 125.717 238.32ZM125.045 235.728C126.154 235.728 127.018 235.493 127.637 235.024C128.277 234.533 128.736 233.904 129.013 233.136C129.29 232.347 129.45 231.504 129.493 230.608C129.514 229.989 129.514 229.371 129.493 228.752C129.45 227.856 129.29 227.024 129.013 226.256C128.736 225.467 128.277 224.837 127.637 224.368C127.018 223.877 126.154 223.632 125.045 223.632C124.042 223.632 123.21 223.867 122.549 224.336C121.888 224.805 121.386 225.403 121.045 226.128C120.725 226.853 120.554 227.589 120.533 228.336C120.512 228.677 120.501 229.093 120.501 229.584C120.501 230.053 120.512 230.459 120.533 230.8C120.576 231.589 120.746 232.368 121.045 233.136C121.365 233.883 121.845 234.501 122.485 234.992C123.146 235.483 124 235.728 125.045 235.728ZM137.292 238C137.079 238 136.898 237.936 136.748 237.808C136.62 237.659 136.556 237.477 136.556 237.264V216.016C136.556 215.803 136.62 215.632 136.748 215.504C136.898 215.355 137.079 215.28 137.292 215.28H138.796C139.031 215.28 139.212 215.355 139.34 215.504C139.468 215.632 139.532 215.803 139.532 216.016V237.264C139.532 237.477 139.468 237.659 139.34 237.808C139.212 237.936 139.031 238 138.796 238H137.292ZM150.962 238.32C148.743 238.32 146.983 237.648 145.682 236.304C144.38 234.939 143.666 233.083 143.538 230.736C143.516 230.459 143.506 230.107 143.506 229.68C143.506 229.232 143.516 228.869 143.538 228.592C143.623 227.077 143.975 225.755 144.594 224.624C145.212 223.472 146.055 222.587 147.122 221.968C148.21 221.349 149.479 221.04 150.93 221.04C152.551 221.04 153.906 221.381 154.994 222.064C156.103 222.747 156.946 223.717 157.522 224.976C158.098 226.235 158.385 227.707 158.385 229.392V229.936C158.385 230.171 158.311 230.352 158.162 230.48C158.034 230.608 157.863 230.672 157.65 230.672H146.578C146.578 230.693 146.578 230.736 146.578 230.8C146.578 230.864 146.578 230.917 146.578 230.96C146.62 231.835 146.812 232.656 147.154 233.424C147.495 234.171 147.986 234.779 148.626 235.248C149.287 235.717 150.055 235.952 150.93 235.952C151.698 235.952 152.338 235.835 152.85 235.6C153.362 235.365 153.778 235.109 154.098 234.832C154.418 234.533 154.631 234.299 154.738 234.128C154.93 233.872 155.079 233.723 155.186 233.68C155.292 233.616 155.463 233.584 155.698 233.584H157.266C157.458 233.584 157.618 233.648 157.746 233.776C157.895 233.883 157.959 234.043 157.938 234.256C157.916 234.576 157.746 234.971 157.426 235.44C157.106 235.888 156.647 236.336 156.05 236.784C155.474 237.232 154.748 237.605 153.874 237.904C153.02 238.181 152.05 238.32 150.962 238.32ZM146.578 228.464H155.346V228.368C155.346 227.408 155.164 226.555 154.802 225.808C154.46 225.061 153.959 224.475 153.298 224.048C152.636 223.6 151.847 223.376 150.93 223.376C150.012 223.376 149.223 223.6 148.562 224.048C147.922 224.475 147.431 225.061 147.09 225.808C146.748 226.555 146.578 227.408 146.578 228.368V228.464ZM162.724 238C162.51 238 162.329 237.936 162.18 237.808C162.052 237.659 161.988 237.477 161.988 237.264V234.96C161.988 234.747 162.052 234.576 162.18 234.448C162.329 234.299 162.51 234.224 162.724 234.224H165.028C165.241 234.224 165.422 234.299 165.572 234.448C165.721 234.576 165.796 234.747 165.796 234.96V237.264C165.796 237.477 165.721 237.659 165.572 237.808C165.422 237.936 165.241 238 165.028 238H162.724Z" fill="#A897EC"/>
<path d="M224.697 238C224.484 238 224.303 237.936 224.153 237.808C224.025 237.659 223.961 237.477 223.961 237.264V218.448H217.817C217.604 218.448 217.423 218.384 217.273 218.256C217.145 218.107 217.081 217.925 217.081 217.712V216.368C217.081 216.133 217.145 215.952 217.273 215.824C217.423 215.675 217.604 215.6 217.817 215.6H233.241C233.476 215.6 233.657 215.675 233.785 215.824C233.935 215.952 234.009 216.133 234.009 216.368V217.712C234.009 217.925 233.935 218.107 233.785 218.256C233.657 218.384 233.476 218.448 233.241 218.448H227.129V237.264C227.129 237.477 227.055 237.659 226.905 237.808C226.777 237.936 226.596 238 226.361 238H224.697ZM235.323 238C235.109 238 234.928 237.936 234.779 237.808C234.651 237.659 234.587 237.477 234.587 237.264V222.128C234.587 221.915 234.651 221.733 234.779 221.584C234.928 221.435 235.109 221.36 235.323 221.36H236.795C237.008 221.36 237.189 221.435 237.339 221.584C237.488 221.733 237.563 221.915 237.563 222.128V223.536C237.989 222.811 238.576 222.267 239.323 221.904C240.069 221.541 240.976 221.36 242.043 221.36H243.291C243.504 221.36 243.675 221.435 243.803 221.584C243.952 221.712 244.027 221.883 244.027 222.096V223.408C244.027 223.621 243.952 223.792 243.803 223.92C243.675 224.048 243.504 224.112 243.291 224.112H241.371C240.219 224.112 239.312 224.453 238.651 225.136C237.989 225.797 237.659 226.704 237.659 227.856V237.264C237.659 237.477 237.584 237.659 237.435 237.808C237.285 237.936 237.104 238 236.891 238H235.323ZM251.133 238.32C250.066 238.32 249.096 238.107 248.221 237.68C247.346 237.253 246.642 236.677 246.109 235.952C245.576 235.227 245.309 234.405 245.309 233.488C245.309 232.016 245.906 230.843 247.101 229.968C248.296 229.093 249.853 228.517 251.773 228.24L256.541 227.568V226.64C256.541 225.616 256.242 224.816 255.645 224.24C255.069 223.664 254.12 223.376 252.797 223.376C251.858 223.376 251.09 223.568 250.493 223.952C249.896 224.336 249.48 224.827 249.245 225.424C249.117 225.744 248.893 225.904 248.573 225.904H247.133C246.898 225.904 246.717 225.84 246.589 225.712C246.482 225.563 246.429 225.392 246.429 225.2C246.429 224.88 246.546 224.485 246.781 224.016C247.037 223.547 247.421 223.088 247.933 222.64C248.445 222.192 249.096 221.819 249.885 221.52C250.696 221.2 251.677 221.04 252.829 221.04C254.109 221.04 255.186 221.211 256.061 221.552C256.936 221.872 257.618 222.309 258.109 222.864C258.621 223.419 258.984 224.048 259.197 224.752C259.432 225.456 259.549 226.171 259.549 226.896V237.264C259.549 237.477 259.474 237.659 259.325 237.808C259.197 237.936 259.026 238 258.813 238H257.341C257.106 238 256.925 237.936 256.797 237.808C256.669 237.659 256.605 237.477 256.605 237.264V235.888C256.328 236.272 255.954 236.656 255.485 237.04C255.016 237.403 254.429 237.712 253.725 237.968C253.021 238.203 252.157 238.32 251.133 238.32ZM251.805 235.92C252.68 235.92 253.48 235.739 254.205 235.376C254.93 234.992 255.496 234.405 255.901 233.616C256.328 232.827 256.541 231.835 256.541 230.64V229.744L252.829 230.288C251.314 230.501 250.173 230.864 249.405 231.376C248.637 231.867 248.253 232.496 248.253 233.264C248.253 233.861 248.424 234.363 248.765 234.768C249.128 235.152 249.576 235.44 250.109 235.632C250.664 235.824 251.229 235.92 251.805 235.92ZM264.885 238C264.672 238 264.491 237.936 264.341 237.808C264.213 237.659 264.149 237.477 264.149 237.264V222.096C264.149 221.883 264.213 221.712 264.341 221.584C264.491 221.435 264.672 221.36 264.885 221.36H266.389C266.603 221.36 266.773 221.435 266.901 221.584C267.051 221.712 267.125 221.883 267.125 222.096V223.504C267.68 222.779 268.373 222.192 269.205 221.744C270.059 221.275 271.147 221.04 272.469 221.04C273.856 221.04 275.029 221.349 275.989 221.968C276.971 222.565 277.707 223.408 278.197 224.496C278.709 225.563 278.965 226.811 278.965 228.24V237.264C278.965 237.477 278.891 237.659 278.741 237.808C278.613 237.936 278.443 238 278.229 238H276.629C276.416 238 276.235 237.936 276.085 237.808C275.957 237.659 275.893 237.477 275.893 237.264V228.4C275.893 226.907 275.531 225.744 274.805 224.912C274.08 224.059 273.013 223.632 271.605 223.632C270.283 223.632 269.216 224.059 268.405 224.912C267.616 225.744 267.221 226.907 267.221 228.4V237.264C267.221 237.477 267.147 237.659 266.997 237.808C266.869 237.936 266.699 238 266.485 238H264.885ZM289.316 238.32C288.121 238.32 287.097 238.171 286.244 237.872C285.39 237.573 284.697 237.211 284.164 236.784C283.63 236.357 283.225 235.931 282.948 235.504C282.692 235.077 282.553 234.736 282.532 234.48C282.51 234.245 282.585 234.064 282.756 233.936C282.926 233.808 283.097 233.744 283.268 233.744H284.708C284.814 233.744 284.9 233.765 284.964 233.808C285.049 233.829 285.156 233.915 285.284 234.064C285.561 234.363 285.87 234.661 286.212 234.96C286.553 235.259 286.969 235.504 287.46 235.696C287.972 235.888 288.601 235.984 289.348 235.984C290.436 235.984 291.332 235.781 292.036 235.376C292.74 234.949 293.092 234.331 293.092 233.52C293.092 232.987 292.942 232.56 292.644 232.24C292.366 231.92 291.854 231.632 291.108 231.376C290.382 231.12 289.38 230.853 288.1 230.576C286.82 230.277 285.806 229.915 285.06 229.488C284.313 229.04 283.78 228.517 283.46 227.92C283.14 227.301 282.98 226.608 282.98 225.84C282.98 225.051 283.214 224.293 283.684 223.568C284.153 222.821 284.836 222.213 285.732 221.744C286.649 221.275 287.79 221.04 289.156 221.04C290.265 221.04 291.214 221.179 292.004 221.456C292.793 221.733 293.444 222.085 293.956 222.512C294.468 222.917 294.852 223.323 295.108 223.728C295.364 224.133 295.502 224.475 295.524 224.752C295.545 224.965 295.481 225.147 295.332 225.296C295.182 225.424 295.012 225.488 294.82 225.488H293.476C293.326 225.488 293.198 225.456 293.092 225.392C293.006 225.328 292.921 225.253 292.836 225.168C292.622 224.891 292.366 224.613 292.068 224.336C291.79 224.059 291.417 223.835 290.948 223.664C290.5 223.472 289.902 223.376 289.156 223.376C288.089 223.376 287.289 223.6 286.756 224.048C286.222 224.496 285.956 225.061 285.956 225.744C285.956 226.149 286.073 226.512 286.308 226.832C286.542 227.152 286.99 227.44 287.652 227.696C288.313 227.952 289.294 228.229 290.595 228.528C292.004 228.805 293.113 229.179 293.924 229.648C294.734 230.117 295.31 230.661 295.652 231.28C295.993 231.899 296.164 232.613 296.164 233.424C296.164 234.32 295.908 235.141 295.396 235.888C294.884 236.635 294.116 237.232 293.092 237.68C292.068 238.107 290.809 238.32 289.316 238.32ZM300.636 244.08C300.423 244.08 300.241 244.005 300.092 243.856C299.964 243.728 299.9 243.557 299.9 243.344V222.096C299.9 221.883 299.964 221.712 300.092 221.584C300.241 221.435 300.423 221.36 300.636 221.36H302.108C302.321 221.36 302.492 221.435 302.62 221.584C302.769 221.712 302.844 221.883 302.844 222.096V223.504C303.356 222.8 304.039 222.213 304.892 221.744C305.745 221.275 306.812 221.04 308.092 221.04C309.287 221.04 310.3 221.243 311.132 221.648C311.985 222.053 312.679 222.608 313.212 223.312C313.767 224.016 314.183 224.816 314.46 225.712C314.737 226.608 314.897 227.568 314.94 228.592C314.961 228.933 314.972 229.296 314.972 229.68C314.972 230.064 314.961 230.427 314.94 230.768C314.897 231.771 314.737 232.731 314.46 233.648C314.183 234.544 313.767 235.344 313.212 236.048C312.679 236.731 311.985 237.285 311.132 237.712C310.3 238.117 309.287 238.32 308.092 238.32C306.855 238.32 305.809 238.096 304.956 237.648C304.124 237.179 303.441 236.603 302.908 235.92V243.344C302.908 243.557 302.844 243.728 302.716 243.856C302.588 244.005 302.417 244.08 302.204 244.08H300.636ZM307.42 235.728C308.529 235.728 309.393 235.493 310.012 235.024C310.652 234.533 311.111 233.904 311.388 233.136C311.665 232.347 311.825 231.504 311.868 230.608C311.889 229.989 311.889 229.371 311.868 228.752C311.825 227.856 311.665 227.024 311.388 226.256C311.111 225.467 310.652 224.837 310.012 224.368C309.393 223.877 308.529 223.632 307.42 223.632C306.375 223.632 305.521 223.877 304.86 224.368C304.22 224.859 303.74 225.488 303.42 226.256C303.121 227.003 302.951 227.771 302.908 228.56C302.887 228.901 302.876 229.307 302.876 229.776C302.876 230.245 302.887 230.661 302.908 231.024C302.929 231.771 303.1 232.507 303.42 233.232C303.761 233.957 304.263 234.555 304.924 235.024C305.585 235.493 306.417 235.728 307.42 235.728ZM323.571 238.32C322.504 238.32 321.533 238.107 320.659 237.68C319.784 237.253 319.08 236.677 318.547 235.952C318.013 235.227 317.747 234.405 317.747 233.488C317.747 232.016 318.344 230.843 319.539 229.968C320.733 229.093 322.291 228.517 324.211 228.24L328.979 227.568V226.64C328.979 225.616 328.68 224.816 328.083 224.24C327.507 223.664 326.557 223.376 325.235 223.376C324.296 223.376 323.528 223.568 322.931 223.952C322.333 224.336 321.917 224.827 321.683 225.424C321.555 225.744 321.331 225.904 321.011 225.904H319.571C319.336 225.904 319.155 225.84 319.027 225.712C318.92 225.563 318.867 225.392 318.867 225.2C318.867 224.88 318.984 224.485 319.219 224.016C319.475 223.547 319.859 223.088 320.371 222.64C320.883 222.192 321.533 221.819 322.323 221.52C323.133 221.2 324.115 221.04 325.267 221.04C326.547 221.04 327.624 221.211 328.499 221.552C329.373 221.872 330.056 222.309 330.547 222.864C331.059 223.419 331.421 224.048 331.635 224.752C331.869 225.456 331.987 226.171 331.987 226.896V237.264C331.987 237.477 331.912 237.659 331.763 237.808C331.635 237.936 331.464 238 331.251 238H329.779C329.544 238 329.363 237.936 329.235 237.808C329.107 237.659 329.043 237.477 329.043 237.264V235.888C328.765 236.272 328.392 236.656 327.923 237.04C327.453 237.403 326.867 237.712 326.163 237.968C325.459 238.203 324.595 238.32 323.571 238.32ZM324.243 235.92C325.117 235.92 325.917 235.739 326.643 235.376C327.368 234.992 327.933 234.405 328.339 233.616C328.765 232.827 328.979 231.835 328.979 230.64V229.744L325.267 230.288C323.752 230.501 322.611 230.864 321.843 231.376C321.075 231.867 320.691 232.496 320.691 233.264C320.691 233.861 320.861 234.363 321.203 234.768C321.565 235.152 322.013 235.44 322.547 235.632C323.101 235.824 323.667 235.92 324.243 235.92ZM337.323 238C337.109 238 336.928 237.936 336.779 237.808C336.651 237.659 336.587 237.477 336.587 237.264V222.128C336.587 221.915 336.651 221.733 336.779 221.584C336.928 221.435 337.109 221.36 337.323 221.36H338.795C339.008 221.36 339.189 221.435 339.339 221.584C339.488 221.733 339.563 221.915 339.563 222.128V223.536C339.989 222.811 340.576 222.267 341.323 221.904C342.069 221.541 342.976 221.36 344.043 221.36H345.291C345.504 221.36 345.675 221.435 345.803 221.584C345.952 221.712 346.027 221.883 346.027 222.096V223.408C346.027 223.621 345.952 223.792 345.803 223.92C345.675 224.048 345.504 224.112 345.291 224.112H343.371C342.219 224.112 341.312 224.453 340.651 225.136C339.989 225.797 339.659 226.704 339.659 227.856V237.264C339.659 237.477 339.584 237.659 339.435 237.808C339.285 237.936 339.104 238 338.891 238H337.323ZM355.087 238.32C352.868 238.32 351.108 237.648 349.807 236.304C348.505 234.939 347.791 233.083 347.663 230.736C347.641 230.459 347.631 230.107 347.631 229.68C347.631 229.232 347.641 228.869 347.663 228.592C347.748 227.077 348.1 225.755 348.719 224.624C349.337 223.472 350.18 222.587 351.247 221.968C352.335 221.349 353.604 221.04 355.055 221.04C356.676 221.04 358.031 221.381 359.119 222.064C360.228 222.747 361.071 223.717 361.647 224.976C362.223 226.235 362.51 227.707 362.51 229.392V229.936C362.51 230.171 362.436 230.352 362.287 230.48C362.159 230.608 361.988 230.672 361.775 230.672H350.703C350.703 230.693 350.703 230.736 350.703 230.8C350.703 230.864 350.703 230.917 350.703 230.96C350.745 231.835 350.937 232.656 351.279 233.424C351.62 234.171 352.111 234.779 352.751 235.248C353.412 235.717 354.18 235.952 355.055 235.952C355.823 235.952 356.463 235.835 356.975 235.6C357.487 235.365 357.903 235.109 358.223 234.832C358.543 234.533 358.756 234.299 358.863 234.128C359.055 233.872 359.204 233.723 359.311 233.68C359.417 233.616 359.588 233.584 359.823 233.584H361.391C361.583 233.584 361.743 233.648 361.871 233.776C362.02 233.883 362.084 234.043 362.062 234.256C362.041 234.576 361.871 234.971 361.551 235.44C361.231 235.888 360.772 236.336 360.175 236.784C359.599 237.232 358.873 237.605 357.999 237.904C357.145 238.181 356.175 238.32 355.087 238.32ZM350.703 228.464H359.471V228.368C359.471 227.408 359.289 226.555 358.927 225.808C358.585 225.061 358.084 224.475 357.423 224.048C356.761 223.6 355.972 223.376 355.055 223.376C354.137 223.376 353.348 223.6 352.687 224.048C352.047 224.475 351.556 225.061 351.215 225.808C350.873 226.555 350.703 227.408 350.703 228.368V228.464ZM367.073 238C366.859 238 366.678 237.936 366.529 237.808C366.401 237.659 366.337 237.477 366.337 237.264V222.096C366.337 221.883 366.401 221.712 366.529 221.584C366.678 221.435 366.859 221.36 367.073 221.36H368.577C368.79 221.36 368.961 221.435 369.089 221.584C369.238 221.712 369.313 221.883 369.313 222.096V223.504C369.867 222.779 370.561 222.192 371.393 221.744C372.246 221.275 373.334 221.04 374.657 221.04C376.043 221.04 377.217 221.349 378.177 221.968C379.158 222.565 379.894 223.408 380.385 224.496C380.897 225.563 381.153 226.811 381.153 228.24V237.264C381.153 237.477 381.078 237.659 380.929 237.808C380.801 237.936 380.63 238 380.417 238H378.817C378.603 238 378.422 237.936 378.273 237.808C378.145 237.659 378.081 237.477 378.081 237.264V228.4C378.081 226.907 377.718 225.744 376.993 224.912C376.267 224.059 375.201 223.632 373.793 223.632C372.47 223.632 371.403 224.059 370.593 224.912C369.803 225.744 369.409 226.907 369.409 228.4V237.264C369.409 237.477 369.334 237.659 369.185 237.808C369.057 237.936 368.886 238 368.673 238H367.073ZM392.02 238C390.826 238 389.855 237.776 389.108 237.328C388.362 236.859 387.818 236.208 387.476 235.376C387.135 234.523 386.964 233.52 386.964 232.368V223.92H384.468C384.255 223.92 384.074 223.856 383.924 223.728C383.796 223.579 383.732 223.397 383.732 223.184V222.096C383.732 221.883 383.796 221.712 383.924 221.584C384.074 221.435 384.255 221.36 384.468 221.36H386.964V216.016C386.964 215.803 387.028 215.632 387.156 215.504C387.306 215.355 387.487 215.28 387.7 215.28H389.204C389.418 215.28 389.588 215.355 389.716 215.504C389.866 215.632 389.94 215.803 389.94 216.016V221.36H393.908C394.143 221.36 394.324 221.435 394.452 221.584C394.58 221.712 394.644 221.883 394.644 222.096V223.184C394.644 223.397 394.58 223.579 394.452 223.728C394.324 223.856 394.143 223.92 393.908 223.92H389.94V232.144C389.94 233.147 390.111 233.936 390.452 234.512C390.794 235.088 391.402 235.376 392.276 235.376H394.228C394.442 235.376 394.612 235.451 394.74 235.6C394.89 235.728 394.964 235.899 394.964 236.112V237.264C394.964 237.477 394.89 237.659 394.74 237.808C394.612 237.936 394.442 238 394.228 238H392.02ZM398.536 238C398.323 238 398.142 237.936 397.992 237.808C397.864 237.659 397.8 237.477 397.8 237.264V234.96C397.8 234.747 397.864 234.576 397.992 234.448C398.142 234.299 398.323 234.224 398.536 234.224H400.84C401.054 234.224 401.235 234.299 401.384 234.448C401.534 234.576 401.608 234.747 401.608 234.96V237.264C401.608 237.477 401.534 237.659 401.384 237.808C401.235 237.936 401.054 238 400.84 238H398.536Z" fill="#A897EC"/>
<path d="M455.817 238C455.582 238 455.401 237.936 455.273 237.808C455.145 237.659 455.081 237.477 455.081 237.264V216.368C455.081 216.133 455.145 215.952 455.273 215.824C455.401 215.675 455.582 215.6 455.817 215.6H463.081C465.278 215.6 467.049 215.931 468.393 216.592C469.737 217.253 470.718 218.235 471.337 219.536C471.956 220.816 472.276 222.395 472.297 224.272C472.318 225.232 472.329 226.075 472.329 226.8C472.329 227.525 472.318 228.357 472.297 229.296C472.254 231.259 471.924 232.891 471.305 234.192C470.708 235.472 469.748 236.432 468.425 237.072C467.124 237.691 465.396 238 463.241 238H455.817ZM458.217 235.28H463.081C464.553 235.28 465.726 235.077 466.601 234.672C467.476 234.267 468.105 233.616 468.489 232.72C468.894 231.824 469.108 230.64 469.129 229.168C469.172 228.528 469.193 227.973 469.193 227.504C469.193 227.013 469.193 226.533 469.193 226.064C469.193 225.573 469.172 225.019 469.129 224.4C469.086 222.331 468.596 220.805 467.657 219.824C466.718 218.821 465.14 218.32 462.921 218.32H458.217V235.28ZM483.383 238.32C481.165 238.32 479.405 237.648 478.103 236.304C476.802 234.939 476.087 233.083 475.959 230.736C475.938 230.459 475.927 230.107 475.927 229.68C475.927 229.232 475.938 228.869 475.959 228.592C476.045 227.077 476.397 225.755 477.015 224.624C477.634 223.472 478.477 222.587 479.543 221.968C480.631 221.349 481.901 221.04 483.351 221.04C484.973 221.04 486.327 221.381 487.415 222.064C488.525 222.747 489.367 223.717 489.943 224.976C490.519 226.235 490.807 227.707 490.807 229.392V229.936C490.807 230.171 490.733 230.352 490.583 230.48C490.455 230.608 490.285 230.672 490.071 230.672H478.999C478.999 230.693 478.999 230.736 478.999 230.8C478.999 230.864 478.999 230.917 478.999 230.96C479.042 231.835 479.234 232.656 479.575 233.424C479.917 234.171 480.407 234.779 481.047 235.248C481.709 235.717 482.477 235.952 483.351 235.952C484.119 235.952 484.759 235.835 485.271 235.6C485.783 235.365 486.199 235.109 486.519 234.832C486.839 234.533 487.053 234.299 487.159 234.128C487.351 233.872 487.501 233.723 487.607 233.68C487.714 233.616 487.885 233.584 488.119 233.584H489.687C489.879 233.584 490.039 233.648 490.167 233.776C490.317 233.883 490.381 234.043 490.359 234.256C490.338 234.576 490.167 234.971 489.847 235.44C489.527 235.888 489.069 236.336 488.471 236.784C487.895 237.232 487.17 237.605 486.295 237.904C485.442 238.181 484.471 238.32 483.383 238.32ZM478.999 228.464H487.767V228.368C487.767 227.408 487.586 226.555 487.223 225.808C486.882 225.061 486.381 224.475 485.719 224.048C485.058 223.6 484.269 223.376 483.351 223.376C482.434 223.376 481.645 223.6 480.983 224.048C480.343 224.475 479.853 225.061 479.511 225.808C479.17 226.555 478.999 227.408 478.999 228.368V228.464ZM501.354 238.32C499.839 238.32 498.527 238.032 497.418 237.456C496.33 236.859 495.487 236.016 494.89 234.928C494.292 233.819 493.972 232.496 493.93 230.96C493.908 230.64 493.898 230.213 493.898 229.68C493.898 229.147 493.908 228.72 493.93 228.4C493.972 226.864 494.292 225.552 494.89 224.464C495.487 223.355 496.33 222.512 497.418 221.936C498.527 221.339 499.839 221.04 501.354 221.04C502.591 221.04 503.647 221.211 504.522 221.552C505.418 221.893 506.154 222.331 506.73 222.864C507.306 223.397 507.732 223.973 508.01 224.592C508.308 225.211 508.468 225.797 508.49 226.352C508.511 226.565 508.447 226.736 508.298 226.864C508.148 226.992 507.967 227.056 507.754 227.056H506.218C506.004 227.056 505.844 227.013 505.738 226.928C505.631 226.821 505.524 226.651 505.418 226.416C505.034 225.371 504.511 224.635 503.85 224.208C503.188 223.781 502.367 223.568 501.386 223.568C500.106 223.568 499.06 223.963 498.25 224.752C497.46 225.541 497.034 226.811 496.97 228.56C496.948 229.328 496.948 230.075 496.97 230.8C497.034 232.571 497.46 233.851 498.25 234.64C499.06 235.408 500.106 235.792 501.386 235.792C502.367 235.792 503.188 235.579 503.85 235.152C504.511 234.725 505.034 233.989 505.418 232.944C505.524 232.709 505.631 232.539 505.738 232.432C505.844 232.325 506.004 232.272 506.218 232.272H507.754C507.967 232.272 508.148 232.347 508.298 232.496C508.447 232.624 508.511 232.795 508.49 233.008C508.468 233.456 508.372 233.915 508.202 234.384C508.031 234.853 507.754 235.333 507.37 235.824C507.007 236.293 506.548 236.72 505.994 237.104C505.439 237.467 504.778 237.765 504.01 238C503.242 238.213 502.356 238.32 501.354 238.32ZM518.946 238.32C516.727 238.32 514.967 237.648 513.666 236.304C512.365 234.939 511.65 233.083 511.522 230.736C511.501 230.459 511.49 230.107 511.49 229.68C511.49 229.232 511.501 228.869 511.522 228.592C511.607 227.077 511.959 225.755 512.578 224.624C513.197 223.472 514.039 222.587 515.106 221.968C516.194 221.349 517.463 221.04 518.914 221.04C520.535 221.04 521.89 221.381 522.978 222.064C524.087 222.747 524.93 223.717 525.506 224.976C526.082 226.235 526.37 227.707 526.37 229.392V229.936C526.37 230.171 526.295 230.352 526.146 230.48C526.018 230.608 525.847 230.672 525.634 230.672H514.562C514.562 230.693 514.562 230.736 514.562 230.8C514.562 230.864 514.562 230.917 514.562 230.96C514.605 231.835 514.797 232.656 515.138 233.424C515.479 234.171 515.97 234.779 516.61 235.248C517.271 235.717 518.039 235.952 518.914 235.952C519.682 235.952 520.322 235.835 520.834 235.6C521.346 235.365 521.762 235.109 522.082 234.832C522.402 234.533 522.615 234.299 522.722 234.128C522.914 233.872 523.063 233.723 523.17 233.68C523.277 233.616 523.447 233.584 523.682 233.584H525.25C525.442 233.584 525.602 233.648 525.73 233.776C525.879 233.883 525.943 234.043 525.922 234.256C525.901 234.576 525.73 234.971 525.41 235.44C525.09 235.888 524.631 236.336 524.034 236.784C523.458 237.232 522.733 237.605 521.858 237.904C521.005 238.181 520.034 238.32 518.946 238.32ZM514.562 228.464H523.33V228.368C523.33 227.408 523.149 226.555 522.786 225.808C522.445 225.061 521.943 224.475 521.282 224.048C520.621 223.6 519.831 223.376 518.914 223.376C517.997 223.376 517.207 223.6 516.546 224.048C515.906 224.475 515.415 225.061 515.074 225.808C514.733 226.555 514.562 227.408 514.562 228.368V228.464ZM530.932 238C530.719 238 530.537 237.936 530.388 237.808C530.26 237.659 530.196 237.477 530.196 237.264V222.096C530.196 221.883 530.26 221.712 530.388 221.584C530.537 221.435 530.719 221.36 530.932 221.36H532.436C532.649 221.36 532.82 221.435 532.948 221.584C533.097 221.712 533.172 221.883 533.172 222.096V223.504C533.727 222.779 534.42 222.192 535.252 221.744C536.105 221.275 537.193 221.04 538.516 221.04C539.903 221.04 541.076 221.349 542.036 221.968C543.017 222.565 543.753 223.408 544.244 224.496C544.756 225.563 545.012 226.811 545.012 228.24V237.264C545.012 237.477 544.937 237.659 544.788 237.808C544.66 237.936 544.489 238 544.276 238H542.676C542.463 238 542.281 237.936 542.132 237.808C542.004 237.659 541.94 237.477 541.94 237.264V228.4C541.94 226.907 541.577 225.744 540.852 224.912C540.127 224.059 539.06 223.632 537.652 223.632C536.329 223.632 535.263 224.059 534.452 224.912C533.663 225.744 533.268 226.907 533.268 228.4V237.264C533.268 237.477 533.193 237.659 533.044 237.808C532.916 237.936 532.745 238 532.532 238H530.932ZM555.88 238C554.685 238 553.714 237.776 552.968 237.328C552.221 236.859 551.677 236.208 551.336 235.376C550.994 234.523 550.824 233.52 550.824 232.368V223.92H548.328C548.114 223.92 547.933 223.856 547.784 223.728C547.656 223.579 547.592 223.397 547.592 223.184V222.096C547.592 221.883 547.656 221.712 547.784 221.584C547.933 221.435 548.114 221.36 548.328 221.36H550.824V216.016C550.824 215.803 550.888 215.632 551.016 215.504C551.165 215.355 551.346 215.28 551.56 215.28H553.064C553.277 215.28 553.448 215.355 553.576 215.504C553.725 215.632 553.8 215.803 553.8 216.016V221.36H557.768C558.002 221.36 558.184 221.435 558.312 221.584C558.44 221.712 558.504 221.883 558.504 222.096V223.184C558.504 223.397 558.44 223.579 558.312 223.728C558.184 223.856 558.002 223.92 557.768 223.92H553.8V232.144C553.8 233.147 553.97 233.936 554.312 234.512C554.653 235.088 555.261 235.376 556.136 235.376H558.088C558.301 235.376 558.472 235.451 558.6 235.6C558.749 235.728 558.824 235.899 558.824 236.112V237.264C558.824 237.477 558.749 237.659 558.6 237.808C558.472 237.936 558.301 238 558.088 238H555.88ZM562.62 238C562.406 238 562.225 237.936 562.076 237.808C561.948 237.659 561.884 237.477 561.884 237.264V222.128C561.884 221.915 561.948 221.733 562.076 221.584C562.225 221.435 562.406 221.36 562.62 221.36H564.092C564.305 221.36 564.486 221.435 564.636 221.584C564.785 221.733 564.86 221.915 564.86 222.128V223.536C565.286 222.811 565.873 222.267 566.62 221.904C567.366 221.541 568.273 221.36 569.34 221.36H570.588C570.801 221.36 570.972 221.435 571.1 221.584C571.249 221.712 571.324 221.883 571.324 222.096V223.408C571.324 223.621 571.249 223.792 571.1 223.92C570.972 224.048 570.801 224.112 570.588 224.112H568.668C567.516 224.112 566.609 224.453 565.948 225.136C565.286 225.797 564.956 226.704 564.956 227.856V237.264C564.956 237.477 564.881 237.659 564.732 237.808C564.582 237.936 564.401 238 564.188 238H562.62ZM578.43 238.32C577.363 238.32 576.393 238.107 575.518 237.68C574.643 237.253 573.939 236.677 573.406 235.952C572.873 235.227 572.606 234.405 572.606 233.488C572.606 232.016 573.203 230.843 574.398 229.968C575.593 229.093 577.15 228.517 579.07 228.24L583.838 227.568V226.64C583.838 225.616 583.539 224.816 582.942 224.24C582.366 223.664 581.417 223.376 580.094 223.376C579.155 223.376 578.387 223.568 577.79 223.952C577.193 224.336 576.777 224.827 576.542 225.424C576.414 225.744 576.19 225.904 575.87 225.904H574.43C574.195 225.904 574.014 225.84 573.886 225.712C573.779 225.563 573.726 225.392 573.726 225.2C573.726 224.88 573.843 224.485 574.078 224.016C574.334 223.547 574.718 223.088 575.23 222.64C575.742 222.192 576.393 221.819 577.182 221.52C577.993 221.2 578.974 221.04 580.126 221.04C581.406 221.04 582.483 221.211 583.358 221.552C584.233 221.872 584.915 222.309 585.406 222.864C585.918 223.419 586.281 224.048 586.494 224.752C586.729 225.456 586.846 226.171 586.846 226.896V237.264C586.846 237.477 586.771 237.659 586.622 237.808C586.494 237.936 586.323 238 586.11 238H584.638C584.403 238 584.222 237.936 584.094 237.808C583.966 237.659 583.902 237.477 583.902 237.264V235.888C583.625 236.272 583.251 236.656 582.782 237.04C582.313 237.403 581.726 237.712 581.022 237.968C580.318 238.203 579.454 238.32 578.43 238.32ZM579.102 235.92C579.977 235.92 580.777 235.739 581.502 235.376C582.227 234.992 582.793 234.405 583.198 233.616C583.625 232.827 583.838 231.835 583.838 230.64V229.744L580.126 230.288C578.611 230.501 577.47 230.864 576.702 231.376C575.934 231.867 575.55 232.496 575.55 233.264C575.55 233.861 575.721 234.363 576.062 234.768C576.425 235.152 576.873 235.44 577.406 235.632C577.961 235.824 578.526 235.92 579.102 235.92ZM592.214 238C592.001 238 591.819 237.936 591.67 237.808C591.542 237.659 591.478 237.477 591.478 237.264V216.016C591.478 215.803 591.542 215.632 591.67 215.504C591.819 215.355 592.001 215.28 592.214 215.28H593.718C593.953 215.28 594.134 215.355 594.262 215.504C594.39 215.632 594.454 215.803 594.454 216.016V237.264C594.454 237.477 594.39 237.659 594.262 237.808C594.134 237.936 593.953 238 593.718 238H592.214ZM599.963 238C599.75 238 599.569 237.936 599.419 237.808C599.291 237.659 599.227 237.477 599.227 237.264V222.096C599.227 221.883 599.291 221.712 599.419 221.584C599.569 221.435 599.75 221.36 599.963 221.36H601.499C601.713 221.36 601.883 221.435 602.011 221.584C602.161 221.712 602.235 221.883 602.235 222.096V237.264C602.235 237.477 602.161 237.659 602.011 237.808C601.883 237.936 601.713 238 601.499 238H599.963ZM599.707 218.256C599.494 218.256 599.313 218.192 599.163 218.064C599.035 217.915 598.971 217.733 598.971 217.52V215.792C598.971 215.579 599.035 215.397 599.163 215.248C599.313 215.099 599.494 215.024 599.707 215.024H601.723C601.937 215.024 602.118 215.099 602.267 215.248C602.417 215.397 602.491 215.579 602.491 215.792V217.52C602.491 217.733 602.417 217.915 602.267 218.064C602.118 218.192 601.937 218.256 601.723 218.256H599.707ZM606.657 238C606.444 238 606.263 237.936 606.113 237.808C605.985 237.659 605.921 237.477 605.921 237.264V236.144C605.921 235.952 605.964 235.771 606.049 235.6C606.156 235.429 606.263 235.269 606.369 235.12L615.201 223.888H606.945C606.732 223.888 606.551 223.824 606.401 223.696C606.273 223.568 606.209 223.387 606.209 223.152V222.096C606.209 221.883 606.273 221.712 606.401 221.584C606.551 221.435 606.732 221.36 606.945 221.36H618.337C618.551 221.36 618.721 221.435 618.849 221.584C618.999 221.712 619.073 221.883 619.073 222.096V223.28C619.073 223.472 619.02 223.643 618.913 223.792C618.828 223.941 618.732 224.101 618.625 224.272L609.889 235.472H618.977C619.212 235.472 619.393 235.536 619.521 235.664C619.649 235.792 619.713 235.973 619.713 236.208V237.264C619.713 237.477 619.649 237.659 619.521 237.808C619.393 237.936 619.212 238 618.977 238H606.657ZM629.727 238.32C627.508 238.32 625.748 237.648 624.447 236.304C623.146 234.939 622.431 233.083 622.303 230.736C622.282 230.459 622.271 230.107 622.271 229.68C622.271 229.232 622.282 228.869 622.303 228.592C622.388 227.077 622.74 225.755 623.359 224.624C623.978 223.472 624.82 222.587 625.887 221.968C626.975 221.349 628.244 221.04 629.695 221.04C631.316 221.04 632.671 221.381 633.759 222.064C634.868 222.747 635.711 223.717 636.287 224.976C636.863 226.235 637.151 227.707 637.151 229.392V229.936C637.151 230.171 637.076 230.352 636.927 230.48C636.799 230.608 636.628 230.672 636.415 230.672H625.343C625.343 230.693 625.343 230.736 625.343 230.8C625.343 230.864 625.343 230.917 625.343 230.96C625.386 231.835 625.578 232.656 625.919 233.424C626.26 234.171 626.751 234.779 627.391 235.248C628.052 235.717 628.82 235.952 629.695 235.952C630.463 235.952 631.103 235.835 631.615 235.6C632.127 235.365 632.543 235.109 632.863 234.832C633.183 234.533 633.396 234.299 633.503 234.128C633.695 233.872 633.844 233.723 633.951 233.68C634.058 233.616 634.228 233.584 634.463 233.584H636.031C636.223 233.584 636.383 233.648 636.511 233.776C636.66 233.883 636.724 234.043 636.703 234.256C636.682 234.576 636.511 234.971 636.191 235.44C635.871 235.888 635.412 236.336 634.815 236.784C634.239 237.232 633.514 237.605 632.639 237.904C631.786 238.181 630.815 238.32 629.727 238.32ZM625.343 228.464H634.111V228.368C634.111 227.408 633.93 226.555 633.567 225.808C633.226 225.061 632.724 224.475 632.063 224.048C631.402 223.6 630.612 223.376 629.695 223.376C628.778 223.376 627.988 223.6 627.327 224.048C626.687 224.475 626.196 225.061 625.855 225.808C625.514 226.555 625.343 227.408 625.343 228.368V228.464ZM647.057 238.32C645.884 238.32 644.871 238.117 644.017 237.712C643.164 237.285 642.46 236.72 641.905 236.016C641.372 235.291 640.967 234.469 640.689 233.552C640.433 232.635 640.284 231.664 640.241 230.64C640.22 230.299 640.209 229.979 640.209 229.68C640.209 229.381 640.22 229.061 640.241 228.72C640.284 227.717 640.433 226.757 640.689 225.84C640.967 224.923 641.372 224.101 641.905 223.376C642.46 222.651 643.164 222.085 644.017 221.68C644.871 221.253 645.884 221.04 647.057 221.04C648.316 221.04 649.361 221.264 650.193 221.712C651.025 222.16 651.708 222.715 652.241 223.376V216.016C652.241 215.803 652.305 215.632 652.433 215.504C652.583 215.355 652.764 215.28 652.977 215.28H654.513C654.727 215.28 654.897 215.355 655.025 215.504C655.175 215.632 655.249 215.803 655.249 216.016V237.264C655.249 237.477 655.175 237.659 655.025 237.808C654.897 237.936 654.727 238 654.513 238H653.073C652.839 238 652.657 237.936 652.529 237.808C652.401 237.659 652.337 237.477 652.337 237.264V235.92C651.804 236.603 651.111 237.179 650.257 237.648C649.404 238.096 648.337 238.32 647.057 238.32ZM647.729 235.728C648.796 235.728 649.649 235.483 650.289 234.992C650.929 234.501 651.409 233.883 651.729 233.136C652.049 232.368 652.22 231.589 652.241 230.8C652.263 230.459 652.273 230.053 652.273 229.584C652.273 229.093 652.263 228.677 652.241 228.336C652.22 227.589 652.039 226.853 651.697 226.128C651.377 225.403 650.887 224.805 650.225 224.336C649.585 223.867 648.753 223.632 647.729 223.632C646.641 223.632 645.777 223.877 645.137 224.368C644.497 224.837 644.039 225.467 643.761 226.256C643.484 227.024 643.324 227.856 643.281 228.752C643.26 229.371 643.26 229.989 643.281 230.608C643.324 231.504 643.484 232.347 643.761 233.136C644.039 233.904 644.497 234.533 645.137 235.024C645.777 235.493 646.641 235.728 647.729 235.728ZM660.521 238C660.307 238 660.126 237.936 659.977 237.808C659.849 237.659 659.785 237.477 659.785 237.264V234.96C659.785 234.747 659.849 234.576 659.977 234.448C660.126 234.299 660.307 234.224 660.521 234.224H662.825C663.038 234.224 663.219 234.299 663.369 234.448C663.518 234.576 663.593 234.747 663.593 234.96V237.264C663.593 237.477 663.518 237.659 663.369 237.808C663.219 237.936 663.038 238 662.825 238H660.521Z" fill="#A897EC"/>
<defs>
<linearGradient id="paint0_linear_77_4201" x1="392" y1="56" x2="392" y2="112" gradientUnits="userSpaceOnUse">
<stop stop-color="#A897EC"/>
<stop offset="1" stop-color="white"/>
</linearGradient>
</defs>
</svg>
