<svg width="416" height="416" viewBox="0 0 416 416" fill="none" xmlns="http://www.w3.org/2000/svg">
<rect x="0.5" y="0.5" width="415" height="415" rx="47.5" stroke="#F9F8FB" stroke-opacity="0.04"/>
<rect x="48" y="48" width="320" height="320" rx="28" fill="#A897EC" fill-opacity="0.02"/>
<rect x="48.5" y="48.5" width="319" height="319" rx="27.5" stroke="#F9F8FB" stroke-opacity="0.06"/>
<rect x="88" y="88" width="240" height="240" rx="20" fill="#A897EC" fill-opacity="0.05"/>
<rect x="89" y="89" width="238" height="238" rx="19" stroke="#F9F8FB" stroke-opacity="0.08" stroke-width="2"/>
<rect x="128" y="128" width="160" height="160" rx="16" fill="#A897EC" fill-opacity="0.08"/>
<rect x="129" y="129" width="158" height="158" rx="15" stroke="#F9F8FB" stroke-opacity="0.15" stroke-width="2"/>
<rect x="168" y="168" width="80" height="80" rx="12" fill="#A897EC" fill-opacity="0.1"/>
<rect x="169" y="169" width="78" height="78" rx="11" stroke="#F9F8FB" stroke-opacity="0.15" stroke-width="2"/>
<path fill-rule="evenodd" clip-rule="evenodd" d="M200.065 204.088C200.655 204.529 200.775 205.365 200.334 205.955L196.905 210.537H219.094L215.665 205.955C215.224 205.365 215.345 204.529 215.934 204.088C216.524 203.647 217.359 203.767 217.801 204.357L222.401 210.505C222.573 210.736 222.666 211.016 222.666 211.304V218.826C222.666 219.872 222.224 220.857 221.465 221.57C220.71 222.281 219.702 222.667 218.666 222.667H197.333C196.298 222.667 195.29 222.281 194.534 221.57C193.776 220.857 193.333 219.872 193.333 218.826V211.304C193.333 211.016 193.426 210.736 193.599 210.505L198.199 204.357C198.64 203.767 199.475 203.647 200.065 204.088ZM196 213.204V218.826C196 219.11 196.119 219.4 196.361 219.627C196.605 219.858 196.954 220 197.333 220H218.666C219.046 220 219.394 219.858 219.639 219.627C219.88 219.4 220 219.11 220 218.826V213.204H196Z" fill="#F0EEFC"/>
<path fill-rule="evenodd" clip-rule="evenodd" d="M207.458 194.167C207.919 193.37 208.938 193.097 209.735 193.557L214.931 196.557C215.728 197.017 216.002 198.036 215.541 198.834L210.541 207.494C210.081 208.291 209.062 208.564 208.265 208.104L203.068 205.104C202.271 204.644 201.998 203.624 202.458 202.827L207.458 194.167ZM209.268 196.366L205.268 203.294L208.732 205.294L212.732 198.366L209.268 196.366Z" fill="#F0EEFC"/>
</svg>
