<svg width="336" height="79" viewBox="0 0 336 79" fill="none" xmlns="http://www.w3.org/2000/svg">
<path d="M12.4452 27.9396L16.8669 11.4325C17.0953 10.5832 17.8657 9.99144 18.7454 9.99144H28.149L23.8451 26.0562H33.154L39.8673 0.999756H18.5595C13.7198 0.999756 9.48276 4.25134 8.23121 8.9258L0.726807 36.9312H36.6388L18.2266 56.6315L23.0092 38.8086H13.7003L5.35995 69.9076L2.96622 78.8398H9.77681L57.3501 27.9396H12.4452Z" fill="white"/>
<path d="M129.368 12.3838L108.643 67.5812H98.1574L77.3501 12.3838H81.6344C84.8748 12.3838 87.7606 14.4236 88.8521 17.4731L103.397 58.2895L118.023 17.4594C119.115 14.4168 122.001 12.3838 125.234 12.3838H129.368Z" fill="white"/>
<path d="M170.553 46.0847C170.362 54.8647 165.122 62.751 157.079 66.3394C154.153 67.6356 151.048 68.2974 147.876 68.2974C138.898 68.2974 130.76 63.0034 127.117 54.8238C124.633 49.2774 124.483 43.1171 126.653 37.4548C128.822 31.7924 133.086 27.3171 138.612 24.8544C141.559 23.5377 144.656 22.876 147.835 22.876C155.237 22.876 162.196 26.478 166.425 32.5292C167.217 33.6549 167.954 34.9306 168.595 36.3291C169.12 37.5093 169.543 38.71 169.857 39.9516L149.527 48.9841L146.444 42.0665L157.98 36.9295L158.601 36.6566L158.137 36.1517L157.905 35.8993C155.305 33.1637 151.642 31.6151 147.842 31.6151C145.884 31.6151 143.967 32.0244 142.166 32.8157C138.755 34.3302 136.135 37.0795 134.819 40.5656C133.461 44.0381 133.557 47.8311 135.092 51.2422C137.343 56.3042 142.357 59.5583 147.883 59.5583C149.841 59.5583 151.737 59.149 153.525 58.3576C157.011 56.809 159.706 53.8823 160.968 50.3348L170.56 46.071L170.553 46.0847Z" fill="white"/>
<path d="M335.58 44.2622C335.58 45.9278 335.472 47.4322 335.257 48.7753H301.329C301.597 52.3213 302.914 55.1689 305.278 57.318C307.642 59.4671 310.543 60.5416 313.981 60.5416C318.924 60.5416 322.417 58.4731 324.458 54.3361H334.371C333.028 58.4194 330.583 61.7773 327.037 64.41C323.545 66.9889 319.193 68.2783 313.981 68.2783C309.737 68.2783 305.922 67.3381 302.538 65.4576C299.206 63.5235 296.574 60.8371 294.64 57.3986C292.759 53.9063 291.819 49.8767 291.819 45.3099C291.819 40.7431 292.732 36.7404 294.559 33.3019C296.44 29.8096 299.045 27.1233 302.376 25.2428C305.761 23.3623 309.63 22.4221 313.981 22.4221C318.172 22.4221 321.906 23.3355 325.184 25.1622C328.461 26.9889 331.013 29.5678 332.84 32.8989C334.666 36.1763 335.58 39.9641 335.58 44.2622ZM325.99 41.361C325.936 37.9762 324.727 35.2629 322.363 33.2213C319.999 31.1797 317.071 30.1588 313.579 30.1588C310.409 30.1588 307.695 31.1797 305.439 33.2213C303.182 35.2092 301.839 37.9224 301.409 41.361H325.99Z" fill="white"/>
<path d="M291.081 22.6632H280.181V15.7324C280.181 13.4267 278.307 11.553 276.001 11.553H270.854V22.6632H265.581V30.207H270.854V54.942C270.854 59.3234 271.961 62.4858 274.176 64.4293C276.392 66.3727 279.582 67.3479 283.747 67.3479H291.047V59.6438H285.37C283.476 59.6438 282.138 59.2816 281.358 58.5502C280.571 57.8188 280.181 56.6208 280.181 54.942V30.2H291.081V22.6632Z" fill="white"/>
<path d="M240.824 68.2783C236.633 68.2783 232.845 67.3381 229.461 65.4576C226.076 63.5235 223.416 60.8371 221.482 57.3986C219.548 53.9063 218.581 49.8767 218.581 45.3099C218.581 40.7968 219.575 36.7942 221.563 33.3019C223.551 29.8096 226.264 27.1233 229.702 25.2428C233.141 23.3623 236.982 22.4221 241.227 22.4221C245.471 22.4221 249.313 23.3623 252.751 25.2428C256.19 27.1233 258.903 29.8096 260.891 33.3019C262.879 36.7942 263.873 40.7968 263.873 45.3099C263.873 49.823 262.852 53.8257 260.81 57.318C258.769 60.8102 255.975 63.5235 252.429 65.4576C248.937 67.3381 245.068 68.2783 240.824 68.2783ZM240.824 60.2998C243.188 60.2998 245.391 59.7357 247.432 58.6074C249.528 57.4791 251.22 55.7867 252.51 53.5302C253.799 51.2737 254.444 48.5336 254.444 45.3099C254.444 42.0863 253.826 39.3731 252.59 37.1702C251.354 34.9137 249.716 33.2213 247.674 32.093C245.632 30.9648 243.43 30.4006 241.066 30.4006C238.702 30.4006 236.499 30.9648 234.457 32.093C232.469 33.2213 230.884 34.9137 229.702 37.1702C228.52 39.3731 227.929 42.0863 227.929 45.3099C227.929 50.0917 229.138 53.7988 231.556 56.4315C234.027 59.0104 237.117 60.2998 240.824 60.2998Z" fill="white"/>
<path d="M221.899 11.5422L200.865 67.5529H190.227L169.112 11.5422H178.944L195.546 58.1238L212.228 11.5422H221.899Z" fill="white"/>
</svg>
