<svg width="159" height="32" viewBox="0 0 159 32" fill="none" xmlns="http://www.w3.org/2000/svg">
<path d="M34.7678 0H31.6626C30.9047 0 30.2116 0.440342 29.8813 1.13231L21.7248 18.2892L21.7167 18.2701L19.5428 22.8403L19.551 22.8595L17.3798 27.427L6.52149 4.57846H9.61842C10.3764 4.57846 11.0695 5.0188 11.3997 5.71077L18.487 20.5347L20.6608 15.9617L14.9352 3.99316C13.7766 1.55351 11.3321 0 8.65471 0H0L2.16842 4.57846H2.17654L15.206 32H19.551L34.7678 0Z" fill="#EEF3F7"/>
<path fill-rule="evenodd" clip-rule="evenodd" d="M159 18.3471C159 19.0318 158.956 19.6502 158.867 20.2024H144.908C145.018 21.6602 145.56 22.8308 146.533 23.7143C147.505 24.5978 148.699 25.0396 150.114 25.0396C152.147 25.0396 153.584 24.1892 154.424 22.4885H158.503C157.95 24.1671 156.944 25.5476 155.485 26.6298C154.048 27.69 152.258 28.2201 150.114 28.2201C148.367 28.2201 146.798 27.8336 145.405 27.0605C144.035 26.2654 142.952 25.161 142.156 23.7474C141.382 22.3118 140.995 20.6552 140.995 18.7778C140.995 16.9003 141.371 15.2548 142.123 13.8412C142.896 12.4056 143.968 11.3012 145.339 10.5281C146.732 9.75507 148.323 9.36854 150.114 9.36854C151.838 9.36854 153.374 9.74402 154.723 10.495C156.071 11.246 157.121 12.3062 157.873 13.6756C158.624 15.0229 159 16.5801 159 18.3471ZM155.054 17.1543C155.032 15.7628 154.535 14.6474 153.562 13.8081C152.589 12.9688 151.385 12.5491 149.948 12.5491C148.644 12.5491 147.527 12.9688 146.599 13.8081C145.671 14.6253 145.118 15.7408 144.941 17.1543H155.054Z" fill="#EEF3F7"/>
<path d="M136.207 9.46765H140.692V12.5661H136.207V22.7376C136.207 23.4277 136.367 23.9202 136.691 24.2209C137.012 24.5216 137.563 24.6705 138.342 24.6705H140.678V27.8376H137.674C135.96 27.8376 134.648 27.4367 133.737 26.6378C132.825 25.8388 132.37 24.5388 132.37 22.7376V12.5689H130.2V9.46765H132.37V4.90021H134.487C135.436 4.90021 136.207 5.67052 136.207 6.61837V9.46765Z" fill="#EEF3F7"/>
<path fill-rule="evenodd" clip-rule="evenodd" d="M120.014 28.2201C118.29 28.2201 116.732 27.8336 115.339 27.0605C113.946 26.2654 112.852 25.161 112.056 23.7474C111.261 22.3118 110.863 20.6552 110.863 18.7778C110.863 16.9224 111.272 15.2769 112.09 13.8412C112.907 12.4056 114.024 11.3012 115.438 10.5281C116.853 9.75507 118.434 9.36854 120.18 9.36854C121.926 9.36854 123.507 9.75507 124.922 10.5281C126.336 11.3012 127.453 12.4056 128.27 13.8412C129.088 15.2769 129.497 16.9224 129.497 18.7778C129.497 20.6331 129.077 22.2786 128.237 23.7143C127.397 25.15 126.248 26.2654 124.789 27.0605C123.352 27.8336 121.761 28.2201 120.014 28.2201ZM120.014 24.9402C120.987 24.9402 121.893 24.7082 122.733 24.2444C123.595 23.7806 124.292 23.0848 124.822 22.1571C125.353 21.2295 125.618 20.103 125.618 18.7778C125.618 17.4525 125.364 16.3371 124.855 15.4315C124.347 14.5039 123.673 13.8081 122.833 13.3443C121.993 12.8804 121.086 12.6485 120.114 12.6485C119.141 12.6485 118.235 12.8804 117.395 13.3443C116.577 13.8081 115.925 14.5039 115.438 15.4315C114.952 16.3371 114.709 17.4525 114.709 18.7778C114.709 20.7436 115.206 22.2676 116.201 23.3499C117.218 24.4101 118.489 24.9402 120.014 24.9402Z" fill="#EEF3F7"/>
<path d="M103.574 27.922L112.228 4.89584H108.249L101.385 24.0456L94.5548 4.89584H90.5096L99.1969 27.922H103.574Z" fill="#EEF3F7"/>
<path d="M91.1023 18.9702C91.0238 22.5797 88.8681 25.8218 85.5589 27.297C84.3547 27.8298 83.0776 28.1019 81.7724 28.1019C78.0787 28.1019 74.7301 25.9255 73.2313 22.5629C72.2096 20.2827 72.1478 17.7502 73.0404 15.4224C73.933 13.0946 75.6872 11.2548 77.9608 10.2424C79.1733 9.70109 80.4476 9.42904 81.7556 9.42904C84.801 9.42904 87.664 10.9099 89.4042 13.3975C89.7298 13.8603 90.0329 14.3847 90.2968 14.9597C90.5129 15.4448 90.6869 15.9385 90.816 16.4489L82.4517 20.1621L81.183 17.3183L85.9294 15.2065L86.1848 15.0943L85.8985 14.783C84.8291 13.6583 83.3218 13.0217 81.7584 13.0217C80.9529 13.0217 80.1641 13.19 79.4231 13.5153C78.0197 14.1379 76.9419 15.2682 76.4002 16.7013C75.8416 18.1288 75.8809 19.6882 76.5124 21.0905C77.4387 23.1714 79.5017 24.5092 81.7753 24.5092C82.5808 24.5092 83.3611 24.341 84.0965 24.0156C85.5308 23.379 86.6395 22.1758 87.1587 20.7174L91.1051 18.9646L91.1023 18.9702Z" fill="#EEF3F7"/>
<path d="M65.6306 27.8075L74.1577 5.11568H72.4568C71.1264 5.11568 69.9391 5.95144 69.49 7.20228L63.4721 23.9876L57.488 7.20789C57.0389 5.95424 55.8516 5.11568 54.5184 5.11568H52.7557L61.3165 27.8075H65.6306Z" fill="#EEF3F7"/>
</svg>
