<svg width="158" height="60" viewBox="0 0 158 60" fill="none" xmlns="http://www.w3.org/2000/svg">
<path d="M143.059 17.0936V23.7398H156.064V32.351H143.059V39.6907H157.797V48.7642H131.73V8.02002H157.797V17.0936H143.059Z" fill="white"/>
<path d="M95.0334 20.7655L98.442 8.04171C98.6181 7.38702 99.212 6.93089 99.8902 6.93089H107.139L103.821 19.3138H110.997L116.173 0H99.7469C96.016 0 92.7498 2.50636 91.785 6.10949L86 27.6964H113.684L99.4902 42.8816L103.177 29.1435H96.001L89.5716 53.115L87.7263 60H92.9765L129.65 20.7655H95.0334Z" fill="white"/>
<path d="M62.8312 49.1687C59.0165 49.1687 55.5101 48.2826 52.3119 46.5103C49.1137 44.6994 46.5706 42.2143 44.6825 39.0549C42.833 35.857 41.9082 32.2546 41.9082 28.2476C41.9082 24.2406 42.833 20.6574 44.6825 17.4981C46.5706 14.3002 49.1137 11.8151 52.3119 10.0427C55.5101 8.27044 59.0165 7.38428 62.8312 7.38428C66.6844 7.38428 70.1908 8.27044 73.3505 10.0427C76.5486 11.8151 79.0725 14.3002 80.9221 17.4981C82.7716 20.6574 83.6964 24.2406 83.6964 28.2476C83.6964 32.2546 82.7716 35.857 80.9221 39.0549C79.0725 42.2143 76.5486 44.6994 73.3505 46.5103C70.1523 48.2826 66.6459 49.1687 62.8312 49.1687ZM62.8312 38.6504C65.7211 38.6504 67.9945 37.7064 69.6514 35.8185C71.3468 33.9306 72.1945 31.407 72.1945 28.2476C72.1945 25.0112 71.3468 22.4683 69.6514 20.6189C67.9945 18.731 65.7211 17.787 62.8312 17.787C59.9027 17.787 57.6101 18.731 55.9532 20.6189C54.2963 22.4683 53.4679 25.0112 53.4679 28.2476C53.4679 31.4455 54.2963 33.9884 55.9532 35.8763C57.6101 37.7257 59.9027 38.6504 62.8312 38.6504Z" fill="white"/>
<path d="M42.6551 8.02002L28.6101 48.7642H14.1028L0 8.02002H12.1376L21.3854 37.4368L30.5753 8.02002H42.6551Z" fill="white"/>
</svg>
